<svg xmlns="http://www.w3.org/2000/svg" width="22" height="25" viewBox="0 0 22 25">
    <g fill="none" fill-rule="evenodd">
        <path fill="#353B50" d="M21.207 6.22v16.458c0 .624-.218 1.153-.654 1.59a2.164 2.164 0 0 1-1.59.654H2.504a2.164 2.164 0 0 1-1.59-.654 2.164 2.164 0 0 1-.654-1.59V6.22c0-.623.218-1.153.655-1.59a2.164 2.164 0 0 1 1.59-.654h2.244V1.544c0-.156.054-.289.163-.398A.541.541 0 0 1 5.31.983h1.87c.156 0 .288.054.398.163.109.11.163.242.163.398v2.431h5.985V1.544c0-.156.055-.289.164-.398a.541.541 0 0 1 .397-.163h1.87c.156 0 .289.054.398.163.11.11.164.242.164.398v2.431h2.244c.624 0 1.153.218 1.59.655.436.436.654.966.654 1.59zm-2.244 16.178V8.464H2.504v13.934c0 .062.032.124.094.187.062.062.125.093.187.093h15.898c.062 0 .124-.031.187-.093.062-.063.093-.125.093-.187z"/>
        <path fill="#21A68B" d="M15.97 14.636v1.122a.541.541 0 0 1-.163.397.541.541 0 0 1-.398.164h-3.553v3.554a.541.541 0 0 1-.164.397.541.541 0 0 1-.397.164h-1.122a.541.541 0 0 1-.398-.164.541.541 0 0 1-.163-.397v-3.554H6.058a.541.541 0 0 1-.397-.164.541.541 0 0 1-.164-.397v-1.122c0-.156.054-.289.164-.398a.541.541 0 0 1 .397-.163h3.554V10.52c0-.156.054-.288.163-.397a.541.541 0 0 1 .398-.164h1.122c.156 0 .288.055.397.164.11.109.164.241.164.397v3.554h3.553c.156 0 .289.054.398.163.109.11.164.242.164.398z"/>
    </g>
</svg>
