<svg xmlns="http://www.w3.org/2000/svg" width="25" height="22" viewBox="0 0 25 22">
    <g fill="none" fill-rule="evenodd">
        <path fill="#353B50" d="M16.968 5.716l-1.122-2.993H9.954L8.832 5.716H3.174v13.466h19.452V5.716h-5.658zM16.079.479c.406 0 .764.109 1.076.327.312.218.545.514.701.888l.655 1.777h4.115c.623 0 1.153.218 1.59.655.436.436.654.966.654 1.59v13.466c0 .623-.218 1.153-.655 1.59a2.164 2.164 0 0 1-1.59.654H3.176a2.164 2.164 0 0 1-1.59-.654 2.164 2.164 0 0 1-.655-1.59V5.716c0-.624.218-1.154.655-1.59a2.164 2.164 0 0 1 1.59-.655h4.114l.561-1.543c.187-.436.468-.787.842-1.052A2.132 2.132 0 0 1 9.954.48h6.125z"/>
        <path fill="#21A68B" d="M12.9 18.06a5.524 5.524 0 0 1-2.829-.748 5.535 5.535 0 0 1-2.034-2.034 5.524 5.524 0 0 1-.748-2.83c0-1.028.25-1.97.748-2.828a5.535 5.535 0 0 1 2.034-2.034 5.524 5.524 0 0 1 2.829-.748c1.029 0 1.972.25 2.829.748a5.535 5.535 0 0 1 2.034 2.034c.499.857.748 1.8.748 2.829 0 1.028-.25 1.971-.748 2.829a5.535 5.535 0 0 1-2.034 2.034c-.857.498-1.8.748-2.829.748zm0-8.978c-.935 0-1.73.328-2.385.982-.654.655-.982 1.45-.982 2.385 0 .935.328 1.73.982 2.384.655.655 1.45.982 2.385.982.935 0 1.73-.327 2.385-.982.654-.654.982-1.45.982-2.384 0-.935-.328-1.73-.982-2.385-.655-.654-1.45-.982-2.385-.982z"/>
    </g>
</svg>
