<svg width="100" height="100" xmlns="http://www.w3.org/2000/svg">
 <!-- Created with Method Draw - http://github.com/duopixel/Method-Draw/ -->

 <g>
  <title>background</title>
  <rect fill="none" id="canvas_background" height="102" width="102" y="-1" x="-1"/>
  <g display="none" overflow="visible" y="0" x="0" height="100%" width="100%" id="canvasGrid">
   <rect fill="url(#gridpattern)" stroke-width="0" y="0" x="0" height="100%" width="100%"/>
  </g>
 </g>
 <g>
  <title>Layer 1</title>
  <g stroke="null" id="svg_5">
   <path stroke="null" stroke-width="0" id="svg_4" d="m64.983572,50.588979l22.210274,20.219666a6.64521,6.049629 0 0 1 1.998437,4.452172a7.416964,6.752215 0 0 1 -1.998437,4.651854l-4.890485,4.444777a7.416964,6.752215 0 0 1 -5.109825,1.826722a6.64521,6.049629 0 0 1 -4.882361,-1.826722l-22.218398,-20.219666l-22.210274,20.219666a6.64521,6.049629 0 0 1 -4.882361,1.826722a7.416964,6.752215 0 0 1 -5.117949,-1.826722l-4.874237,-4.444777a7.416964,6.752215 0 0 1 -2.006561,-4.65925c0,-1.74537 0.666146,-3.231893 1.998437,-4.437381l22.210274,-20.227062l-22.210274,-20.219666a6.64521,6.049629 0 0 1 -1.998437,-4.452172c0,-1.752766 0.666146,-3.305849 1.998437,-4.651854l4.890485,-4.444777a7.416964,6.752215 0 0 1 5.109825,-1.819326c1.925324,0 3.550069,0.606442 4.882361,1.819326l22.210274,20.219666l22.218398,-20.219666a6.64521,6.049629 0 0 1 4.882361,-1.819326c1.925324,0 3.631307,0.606442 5.117949,1.819326l4.874237,4.444777a7.416964,6.752215 0 0 1 2.006561,4.65925a6.64521,6.049629 0 0 1 -1.998437,4.437381l-22.210274,20.227062z" fill-rule="evenodd" fill="#ffffff"/>
  </g>
 </g>
</svg>