<?xml version="1.0" encoding="UTF-8"?>
<svg width="10px" height="11px" viewBox="0 0 10 11" version="1.1" xmlns="http://www.w3.org/2000/svg" xmlns:xlink="http://www.w3.org/1999/xlink">
    <!-- Generator: sketchtool 52.3 (67297) - http://www.bohemiancoding.com/sketch -->
    <title>715EB8C9-CD70-452E-82DF-F2C9D3A52D7C</title>
    <desc>Created with sketchtool.</desc>
    <g id="UIKIT" stroke="none" stroke-width="1" fill="none" fill-rule="evenodd">
        <g id="UI_KIT_Base" transform="translate(-668.000000, -2020.000000)" fill="#FFFFFF">
            <g id="Group-11" transform="translate(631.000000, 1915.000000)">
                <path d="M43.6445154,110.750013 L46.3788839,113.484381 C46.542946,113.648443 46.6249771,113.848963 46.6249771,114.085942 C46.6249771,114.322921 46.542946,114.532555 46.3788839,114.714847 L45.7773228,115.316408 C45.5950315,115.48047 45.3853968,115.562501 45.1484181,115.562501 C44.9114393,115.562501 44.7109191,115.48047 44.546857,115.316408 L41.8124885,112.582039 L39.07812,115.316408 C38.9140579,115.48047 38.7135377,115.562501 38.476559,115.562501 C38.2395802,115.562501 38.0299456,115.48047 37.8476542,115.316408 L37.2460932,114.714847 C37.0820311,114.532555 37,114.322921 37,114.085942 C37,113.848963 37.0820311,113.648443 37.2460932,113.484381 L39.9804616,110.750013 L37.2460932,108.015644 C37.0820311,107.851582 37,107.651062 37,107.414083 C37,107.177104 37.0820311,106.96747 37.2460932,106.785178 L37.8476542,106.183617 C38.0299456,106.019555 38.2395802,105.937524 38.476559,105.937524 C38.7135377,105.937524 38.9140579,106.019555 39.07812,106.183617 L41.8124885,108.917986 L44.546857,106.183617 C44.7109191,106.019555 44.9114393,105.937524 45.1484181,105.937524 C45.3853968,105.937524 45.5950315,106.019555 45.7773228,106.183617 L46.3788839,106.785178 C46.542946,106.96747 46.6249771,107.177104 46.6249771,107.414083 C46.6249771,107.651062 46.542946,107.851582 46.3788839,108.015644 L43.6445154,110.750013 Z" id="times"></path>
            </g>
        </g>
    </g>
</svg>