<svg xmlns="http://www.w3.org/2000/svg" width="28" height="22" viewBox="0 0 28 22">
    <g fill="none" fill-rule="evenodd">
        <path fill="#353B50" d="M24.825.479c.624 0 1.153.218 1.59.654.436.437.654.967.654 1.59v16.459c0 .623-.218 1.153-.654 1.59a2.164 2.164 0 0 1-1.59.654H2.381a2.164 2.164 0 0 1-1.59-.654 2.164 2.164 0 0 1-.654-1.59V2.723c0-.623.218-1.153.655-1.59A2.164 2.164 0 0 1 2.382.48h22.443zM2.662 2.723c-.062 0-.125.031-.187.094-.062.062-.094.124-.094.187v1.964h22.444V3.004c0-.063-.031-.125-.093-.187-.063-.063-.125-.094-.187-.094H2.662zm21.883 16.459c.062 0 .124-.031.187-.094.062-.062.093-.124.093-.187v-7.948H2.381V18.9c0 .063.032.125.094.187.062.063.125.094.187.094h21.883z"/>
        <path fill="#21A68B" d="M9.114 16.376a.541.541 0 0 1-.163.398.541.541 0 0 1-.398.164H5.187a.541.541 0 0 1-.398-.164.541.541 0 0 1-.163-.398v-1.87c0-.156.054-.288.163-.397a.541.541 0 0 1 .398-.164h3.366c.156 0 .289.055.398.164.109.109.163.241.163.397v1.87zM18.092 16.376a.541.541 0 0 1-.164.398.541.541 0 0 1-.397.164h-6.36a.541.541 0 0 1-.397-.164.541.541 0 0 1-.163-.398v-1.87c0-.156.054-.288.163-.397a.541.541 0 0 1 .398-.164h6.359c.156 0 .288.055.397.164.11.109.164.241.164.397v1.87z"/>
    </g>
</svg>
