<svg xmlns="http://www.w3.org/2000/svg" width="43" height="32" viewBox="0 0 43 32">
    <g fill="none" fill-rule="evenodd" transform="translate(1 1)">
        <rect width="41" height="30" fill="#FFF" stroke="#EBECF2" rx="5"/>
        <path fill="#353B50" fill-rule="nonzero" d="M9.465 15.83c0-.621.136-1.183.407-1.684.272-.502.663-.9 1.175-1.196.512-.295 1.1-.442 1.764-.442.875 0 1.605.241 2.191.723.586.483.924 1.113 1.014 1.89h-1.887a1.293 1.293 0 0 0-.478-.674 1.356 1.356 0 0 0-.829-.258c-.445 0-.802.157-1.072.47-.27.312-.404.702-.404 1.171 0 .473.136.865.41 1.178.273.312.633.469 1.078.469.305 0 .572-.08.803-.24.23-.16.386-.37.468-.628h1.899c-.106.758-.446 1.372-1.023 1.843-.576.47-1.295.706-2.159.706-.664 0-1.254-.148-1.77-.445a3.022 3.022 0 0 1-1.18-1.201 3.488 3.488 0 0 1-.407-1.682zm7.435-1.717v-1.435h.598a.477.477 0 0 0 .38-.156.608.608 0 0 0 .136-.413v-1.16h1.763v1.717h1.659v1.447h-1.659v2.596c0 .238.07.424.208.557.139.132.343.199.613.199h.814V19H20.13c-.695 0-1.237-.192-1.626-.577-.389-.385-.583-.925-.583-1.62v-2.69H16.9zM22.572 19v-6.334h1.752v.955h.1c.125-.27.33-.505.615-.706a1.713 1.713 0 0 1 1.014-.302h.615v1.752h-.732c-.461 0-.827.156-1.096.469-.27.312-.404.74-.404 1.283V19h-1.864zm5.315-1.992V10h1.863v6.791c0 .383.176.574.527.574h.229V19h-.639c-.629 0-1.116-.176-1.462-.527-.345-.352-.518-.84-.518-1.465z"/>
    </g>
</svg>
