<svg xmlns="http://www.w3.org/2000/svg" width="8" height="9" viewBox="0 0 8 9">
    <path fill="#353B50" fill-rule="nonzero" d="M4.547 4.5l2.906 2.906a.174.174 0 0 1 .047.13.174.174 0 0 1-.047.128l-.539.54a.174.174 0 0 1-.129.046.174.174 0 0 1-.129-.047L3.75 5.297.844 8.203a.174.174 0 0 1-.13.047.174.174 0 0 1-.128-.047l-.54-.539A.174.174 0 0 1 0 7.535c0-.055.016-.097.047-.129L2.953 4.5.047 1.594A.174.174 0 0 1 0 1.464c0-.054.016-.097.047-.128l.539-.54A.174.174 0 0 1 .715.75C.77.75.812.766.844.797L3.75 3.703 6.656.797a.174.174 0 0 1 .13-.047c.054 0 .097.016.128.047l.54.539a.174.174 0 0 1 .046.129.174.174 0 0 1-.047.129L4.547 4.5z"/>
</svg>
