<svg xmlns="http://www.w3.org/2000/svg" width="14" height="11" viewBox="0 0 14 11">
    <path fill="#353B50" fill-rule="evenodd" d="M12.687.5c.365 0 .675.128.93.383s.383.565.383.93v7.875c0 .364-.128.674-.383.93a1.266 1.266 0 0 1-.93.382H1.312c-.364 0-.674-.128-.93-.383A1.266 1.266 0 0 1 0 9.687V1.814c0-.365.128-.675.383-.93S.948.5 1.313.5h11.374zm0 1.313H1.312v1.12c.639.511 1.869 1.477 3.692 2.899l.246.219c.365.31.656.528.875.656.346.237.638.356.875.356s.529-.119.875-.356c.219-.128.51-.346.875-.656l.246-.219c1.823-1.404 3.053-2.37 3.691-2.898V1.813zM1.312 9.688h11.375V4.602L9.516 7.117c-.456.383-.83.656-1.121.82-.493.292-.958.438-1.395.438-.438 0-.911-.146-1.422-.437-.273-.165-.647-.438-1.121-.82L1.312 4.601v5.086z"/>
</svg>
