<svg xmlns="http://www.w3.org/2000/svg" width="6" height="6" viewBox="0 0 6 6">
    <path fill="#E35555" fill-rule="nonzero" d="M3.75 3l1.672 1.688a.208.208 0 0 1 .078.171c0 .073-.026.13-.078.172l-.39.39a.208.208 0 0 1-.173.079.208.208 0 0 1-.172-.078L3 3.75 1.312 5.422a.208.208 0 0 1-.171.078.208.208 0 0 1-.172-.078l-.39-.39A.208.208 0 0 1 .5 4.858c0-.073.026-.13.078-.171L2.25 3 .578 1.313A.208.208 0 0 1 .5 1.14c0-.073.026-.13.078-.172l.39-.39A.208.208 0 0 1 1.142.5c.073 0 .13.026.171.078L3 2.25 4.687.578A.208.208 0 0 1 4.86.5c.073 0 .13.026.172.078l.39.39a.208.208 0 0 1 .079.173c0 .073-.026.13-.078.172L3.75 3z"/>
</svg>
