<svg xmlns="http://www.w3.org/2000/svg" width="13" height="10" viewBox="0 0 13 10">
    <path fill="#DFE0E6" fill-rule="evenodd" d="M6.125 0c3.288 0 6.125 3.083 6.125 4.594 0 1.51-2.837 4.593-6.125 4.593S0 6.104 0 4.595C0 3.083 2.837 0 6.125 0zm0 8.094c2.83 0 5.031-2.79 5.031-3.5 0-.711-2.2-3.5-5.031-3.5-2.83 0-5.031 2.789-5.031 3.5 0 .71 2.2 3.5 5.031 3.5zM7.492 3.91l.978-.492a2.626 2.626 0 1 1-2.345-1.45v1.094c-.84 0-1.531.69-1.531 1.532 0 .84.69 1.531 1.531 1.531.84 0 1.531-.69 1.531-1.531 0-.246-.061-.479-.164-.684z"/>
</svg>
