<svg xmlns="http://www.w3.org/2000/svg" width="19" height="25" viewBox="0 0 19 25">
    <g fill="none" fill-rule="evenodd">
        <path fill="#353B50" d="M18.545 7.155v15.523c0 .624-.218 1.153-.655 1.59a2.164 2.164 0 0 1-1.59.654H2.835a2.164 2.164 0 0 1-1.59-.654 2.164 2.164 0 0 1-.654-1.59V3.227c0-.624.218-1.153.655-1.59a2.164 2.164 0 0 1 1.59-.654h9.538c.623 0 1.153.218 1.59.654l3.927 3.928c.437.436.655.966.655 1.59zM12.56 3.414v3.554h3.554L12.56 3.414zm3.74 19.264V9.212h-4.862c-.312 0-.577-.11-.795-.327a1.082 1.082 0 0 1-.327-.795V3.227H2.834v19.451h13.467z"/>
        <path fill="#21A68B" d="M14.056 12.578v1.31a.541.541 0 0 1-.163.397.541.541 0 0 1-.398.164H5.64a.541.541 0 0 1-.398-.164.541.541 0 0 1-.163-.397v-1.31c0-.155.054-.288.163-.397a.541.541 0 0 1 .398-.164h7.855c.156 0 .288.055.398.164.109.11.163.242.163.397zM5.64 15.945h7.855c.156 0 .288.055.398.164.109.109.163.241.163.397v1.31a.541.541 0 0 1-.163.397.541.541 0 0 1-.398.163H5.64a.541.541 0 0 1-.398-.163.541.541 0 0 1-.163-.398v-1.309c0-.156.054-.288.163-.397a.541.541 0 0 1 .398-.164z"/>
    </g>
</svg>
