<svg xmlns="http://www.w3.org/2000/svg" width="35" height="22" viewBox="0 0 35 22">
    <path fill="#56E0C4" fill-rule="evenodd" d="M30.48 17.478h-6.446c-3.56 0-6.445-2.866-6.445-6.402 0-3.535 2.886-6.4 6.445-6.4 3.56 0 6.446 2.865 6.446 6.4v6.402zM24.034.408c-5.933 0-10.742 4.776-10.742 10.668 0 2.402.8 4.618 2.148 6.402h-4.297c-3.56 0-6.445-2.866-6.445-6.402 0-3.535 2.885-6.4 6.445-6.4.557 0 1.097.069 1.612.2a12.868 12.868 0 0 1 2.867-3.496 10.757 10.757 0 0 0-4.479-.972C5.21.408.4 5.184.4 11.076c0 5.893 4.81 10.67 10.743 10.67h23.634v-10.67c0-5.892-4.81-10.668-10.743-10.668z"/>
</svg>
