<svg xmlns="http://www.w3.org/2000/svg" xmlns:xlink="http://www.w3.org/1999/xlink" width="493" height="295" viewBox="0 0 493 295">
    <defs>
        <path id="a" d="M0 295.5h502.299V.498H0z"/>
        <path id="c" d="M157.3 78.853C-25.336 143.14-11.56 240.279 16.763 294.703H397.93C479.353 147.673 457.903 25.13 359.755 5.257 343.457 1.954 329.012.498 316.042.498 233.25.504 211.035 59.94 157.299 78.853z"/>
        <path id="e" d="M157.3 78.853C-25.336 143.14-11.56 240.279 16.763 294.703H397.93C479.353 147.673 457.903 25.13 359.755 5.257 343.457 1.954 329.012.498 316.042.498 233.25.504 211.035 59.94 157.299 78.853z"/>
        <path id="g" d="M157.3 78.853C-25.336 143.14-11.56 240.279 16.763 294.703H397.93C479.353 147.673 457.903 25.13 359.755 5.257 343.457 1.954 329.012.498 316.042.498 233.25.504 211.035 59.94 157.299 78.853z"/>
        <path id="i" d="M157.3 78.853C-25.336 143.14-11.56 240.279 16.763 294.703H397.93C479.353 147.673 457.903 25.13 359.755 5.257 343.457 1.954 329.012.498 316.042.498 233.25.504 211.035 59.94 157.299 78.853z"/>
        <path id="k" d="M157.3 78.853C-25.336 143.14-11.56 240.279 16.763 294.703H397.93C479.353 147.673 457.903 25.13 359.755 5.257 343.457 1.954 329.012.498 316.042.498 233.25.504 211.035 59.94 157.299 78.853z"/>
        <path id="m" d="M157.3 78.853C-25.336 143.14-11.56 240.279 16.763 294.703H397.93C479.353 147.673 457.903 25.13 359.755 5.257 343.457 1.954 329.012.498 316.042.498 233.25.504 211.035 59.94 157.299 78.853"/>
        <path id="o" d="M157.3 78.853C-25.336 143.14-11.56 240.279 16.763 294.703H397.93C479.353 147.673 457.903 25.13 359.755 5.257 343.457 1.954 329.012.498 316.042.498 233.25.504 211.035 59.94 157.299 78.853z"/>
        <path id="q" d="M157.3 78.853C-25.336 143.14-11.56 240.279 16.763 294.703H397.93C479.353 147.673 457.903 25.13 359.755 5.257 343.457 1.954 329.012.498 316.042.498 233.25.504 211.035 59.94 157.299 78.853"/>
        <path id="s" d="M157.3 78.853C-25.336 143.14-11.56 240.279 16.763 294.703H397.93C479.353 147.673 457.903 25.13 359.755 5.257 343.457 1.954 329.012.498 316.042.498 233.25.504 211.035 59.94 157.299 78.853"/>
        <path id="u" d="M157.3 78.853C-25.336 143.14-11.56 240.279 16.763 294.703H397.93C479.353 147.673 457.903 25.13 359.755 5.257 343.457 1.954 329.012.498 316.042.498 233.25.504 211.035 59.94 157.299 78.853"/>
        <path id="w" d="M157.3 78.853C-25.336 143.14-11.56 240.279 16.763 294.703H397.93C479.353 147.673 457.903 25.13 359.755 5.257 343.457 1.954 329.012.498 316.042.498 233.25.504 211.035 59.94 157.299 78.853"/>
        <path id="y" d="M157.3 78.853C-25.336 143.14-11.56 240.279 16.763 294.703H397.93C479.353 147.673 457.903 25.13 359.755 5.257 343.457 1.954 329.012.498 316.042.498 233.25.504 211.035 59.94 157.299 78.853"/>
        <path id="A" d="M157.3 78.853C-25.336 143.14-11.56 240.279 16.763 294.703H397.93C479.353 147.673 457.903 25.13 359.755 5.257 343.457 1.954 329.012.498 316.042.498 233.25.504 211.035 59.94 157.299 78.853"/>
        <path id="C" d="M157.3 78.853C-25.336 143.14-11.56 240.279 16.763 294.703H397.93C479.353 147.673 457.903 25.13 359.755 5.257 343.457 1.954 329.012.498 316.042.498 233.25.504 211.035 59.94 157.299 78.853"/>
        <path id="E" d="M157.3 78.853C-25.336 143.14-11.56 240.279 16.763 294.703H397.93C479.353 147.673 457.903 25.13 359.755 5.257 343.457 1.954 329.012.498 316.042.498 233.25.504 211.035 59.94 157.299 78.853"/>
        <path id="G" d="M157.3 78.853C-25.336 143.14-11.56 240.279 16.763 294.703H397.93C479.353 147.673 457.903 25.13 359.755 5.257 343.457 1.954 329.012.498 316.042.498 233.25.504 211.035 59.94 157.299 78.853"/>
        <path id="I" d="M157.3 78.853C-25.336 143.14-11.56 240.279 16.763 294.703H397.93C479.353 147.673 457.903 25.13 359.755 5.257 343.457 1.954 329.012.498 316.042.498 233.25.504 211.035 59.94 157.299 78.853"/>
        <path id="K" d="M157.3 78.853C-25.336 143.14-11.56 240.279 16.763 294.703H397.93C479.353 147.673 457.903 25.13 359.755 5.257 343.457 1.954 329.012.498 316.042.498 233.25.504 211.035 59.94 157.299 78.853"/>
        <path id="M" d="M157.3 78.853C-25.336 143.14-11.56 240.279 16.763 294.703H397.93C479.353 147.673 457.903 25.13 359.755 5.257 343.457 1.954 329.012.498 316.042.498 233.25.504 211.035 59.94 157.299 78.853"/>
        <path id="O" d="M157.3 78.853C-25.336 143.14-11.56 240.279 16.763 294.703H397.93C479.353 147.673 457.903 25.13 359.755 5.257 343.457 1.954 329.012.498 316.042.498 233.25.504 211.035 59.94 157.299 78.853"/>
        <path id="Q" d="M157.3 78.853C-25.336 143.14-11.56 240.279 16.763 294.703H397.93C479.353 147.673 457.903 25.13 359.755 5.257 343.457 1.954 329.012.498 316.042.498 233.25.504 211.035 59.94 157.299 78.853"/>
        <path id="S" d="M157.3 78.853C-25.336 143.14-11.56 240.279 16.763 294.703H397.93C479.353 147.673 457.903 25.13 359.755 5.257 343.457 1.954 329.012.498 316.042.498 233.25.504 211.035 59.94 157.299 78.853"/>
        <path id="U" d="M157.3 78.853C-25.336 143.14-11.56 240.279 16.763 294.703H397.93C479.353 147.673 457.903 25.13 359.755 5.257 343.457 1.954 329.012.498 316.042.498 233.25.504 211.035 59.94 157.299 78.853"/>
        <path id="W" d="M157.3 78.853C-25.336 143.14-11.56 240.279 16.763 294.703H397.93C479.353 147.673 457.903 25.13 359.755 5.257 343.457 1.954 329.012.498 316.042.498 233.25.504 211.035 59.94 157.299 78.853"/>
        <path id="Y" d="M157.3 78.853C-25.336 143.14-11.56 240.279 16.763 294.703H397.93C479.353 147.673 457.903 25.13 359.755 5.257 343.457 1.954 329.012.498 316.042.498 233.25.504 211.035 59.94 157.299 78.853"/>
        <path id="aa" d="M157.3 78.853C-25.336 143.14-11.56 240.279 16.763 294.703H397.93C479.353 147.673 457.903 25.13 359.755 5.257 343.457 1.954 329.012.498 316.042.498 233.25.504 211.035 59.94 157.299 78.853"/>
        <path id="ac" d="M157.3 78.853C-25.336 143.14-11.56 240.279 16.763 294.703H397.93C479.353 147.673 457.903 25.13 359.755 5.257 343.457 1.954 329.012.498 316.042.498 233.25.504 211.035 59.94 157.299 78.853"/>
        <path id="ae" d="M157.3 78.853C-25.336 143.14-11.56 240.279 16.763 294.703H397.93C479.353 147.673 457.903 25.13 359.755 5.257 343.457 1.954 329.012.498 316.042.498 233.25.504 211.035 59.94 157.299 78.853"/>
        <path id="ag" d="M157.3 78.853C-25.336 143.14-11.56 240.279 16.763 294.703H397.93C479.353 147.673 457.903 25.13 359.755 5.257 343.457 1.954 329.012.498 316.042.498 233.25.504 211.035 59.94 157.299 78.853"/>
        <path id="ai" d="M157.3 78.853C-25.336 143.14-11.56 240.279 16.763 294.703H397.93C479.353 147.673 457.903 25.13 359.755 5.257 343.457 1.954 329.012.498 316.042.498 233.25.504 211.035 59.94 157.299 78.853z"/>
        <path id="ak" d="M157.3 78.853C-25.336 143.14-11.56 240.279 16.763 294.703H397.93C479.353 147.673 457.903 25.13 359.755 5.257 343.457 1.954 329.012.498 316.042.498 233.25.504 211.035 59.94 157.299 78.853z"/>
        <path id="am" d="M157.3 78.853C-25.336 143.14-11.56 240.279 16.763 294.703H397.93C479.353 147.673 457.903 25.13 359.755 5.257 343.457 1.954 329.012.498 316.042.498 233.25.504 211.035 59.94 157.299 78.853z"/>
        <path id="ao" d="M157.3 78.853C-25.336 143.14-11.56 240.279 16.763 294.703H397.93C479.353 147.673 457.903 25.13 359.755 5.257 343.457 1.954 329.012.498 316.042.498 233.25.504 211.035 59.94 157.299 78.853z"/>
        <path id="aq" d="M157.3 78.853C-25.336 143.14-11.56 240.279 16.763 294.703H397.93C479.353 147.673 457.903 25.13 359.755 5.257 343.457 1.954 329.012.498 316.042.498 233.25.504 211.035 59.94 157.299 78.853"/>
        <path id="as" d="M157.3 78.853C-25.336 143.14-11.56 240.279 16.763 294.703H397.93C479.353 147.673 457.903 25.13 359.755 5.257 343.457 1.954 329.012.498 316.042.498 233.25.504 211.035 59.94 157.299 78.853"/>
        <path id="au" d="M157.3 78.853C-25.336 143.14-11.56 240.279 16.763 294.703H397.93C479.353 147.673 457.903 25.13 359.755 5.257 343.457 1.954 329.012.498 316.042.498 233.25.504 211.035 59.94 157.299 78.853"/>
        <path id="aw" d="M157.3 78.853C-25.336 143.14-11.56 240.279 16.763 294.703H397.93C479.353 147.673 457.903 25.13 359.755 5.257 343.457 1.954 329.012.498 316.042.498 233.25.504 211.035 59.94 157.299 78.853z"/>
        <path id="ay" d="M157.3 78.853C-25.336 143.14-11.56 241.075 16.763 295.5H397.93c81.424-147.031 59.974-270.37-38.174-290.244C343.457 1.954 329.012.498 316.042.498 233.25.504 211.035 59.94 157.299 78.853z"/>
        <path id="aA" d="M157.3 78.853C-25.336 143.14-11.56 241.075 16.763 295.5H397.93c81.424-147.031 59.974-270.37-38.174-290.244C343.457 1.954 329.012.498 316.042.498 233.25.504 211.035 59.94 157.299 78.853z"/>
        <path id="aC" d="M157.3 78.853C-25.336 143.14-11.56 241.075 16.763 295.5H397.93c81.424-147.031 59.974-270.37-38.174-290.244C343.457 1.954 329.012.498 316.042.498 233.25.504 211.035 59.94 157.299 78.853z"/>
        <path id="aE" d="M157.3 78.853C-25.336 143.14-11.56 241.075 16.763 295.5H397.93c81.424-147.031 59.974-270.37-38.174-290.244C343.457 1.954 329.012.498 316.042.498 233.25.504 211.035 59.94 157.299 78.853z"/>
        <path id="aG" d="M157.3 78.853C-25.336 143.14-11.56 241.075 16.763 295.5H397.93c81.424-147.031 59.974-270.37-38.174-290.244C343.457 1.954 329.012.498 316.042.498 233.25.504 211.035 59.94 157.299 78.853z"/>
        <path id="aI" d="M157.3 78.853C-25.336 143.14-11.56 241.075 16.763 295.5H397.93c81.424-147.031 59.974-270.37-38.174-290.244C343.457 1.954 329.012.498 316.042.498 233.25.504 211.035 59.94 157.299 78.853"/>
        <path id="aK" d="M157.3 78.853C-25.336 143.14-11.56 241.075 16.763 295.5H397.93c81.424-147.031 59.974-270.37-38.174-290.244C343.457 1.954 329.012.498 316.042.498 233.25.504 211.035 59.94 157.299 78.853"/>
        <path id="aM" d="M157.3 78.853C-25.336 143.14-11.56 241.075 16.763 295.5H397.93c81.424-147.031 59.974-270.37-38.174-290.244C343.457 1.954 329.012.498 316.042.498 233.25.504 211.035 59.94 157.299 78.853z"/>
        <path id="aO" d="M157.3 78.853C-25.336 143.14-11.56 241.075 16.763 295.5H397.93c81.424-147.031 59.974-270.37-38.174-290.244C343.457 1.954 329.012.498 316.042.498 233.25.504 211.035 59.94 157.299 78.853"/>
        <path id="aQ" d="M157.3 78.853C-25.336 143.14-11.56 241.075 16.763 295.5H397.93c81.424-147.031 59.974-270.37-38.174-290.244C343.457 1.954 329.012.498 316.042.498 233.25.504 211.035 59.94 157.299 78.853"/>
        <path id="aS" d="M157.3 78.853C-25.336 143.14-11.56 241.075 16.763 295.5H397.93c81.424-147.031 59.974-270.37-38.174-290.244C343.457 1.954 329.012.498 316.042.498 233.25.504 211.035 59.94 157.299 78.853"/>
        <path id="aU" d="M157.3 78.853C-25.336 143.14-11.56 241.075 16.763 295.5H397.93c81.424-147.031 59.974-270.37-38.174-290.244C343.457 1.954 329.012.498 316.042.498 233.25.504 211.035 59.94 157.299 78.853"/>
        <path id="aW" d="M157.3 78.853C-25.336 143.14-11.56 241.075 16.763 295.5H397.93c81.424-147.031 59.974-270.37-38.174-290.244C343.457 1.954 329.012.498 316.042.498 233.25.504 211.035 59.94 157.299 78.853"/>
        <path id="aY" d="M157.3 78.853C-25.336 143.14-11.56 241.075 16.763 295.5H397.93c81.424-147.031 59.974-270.37-38.174-290.244C343.457 1.954 329.012.498 316.042.498 233.25.504 211.035 59.94 157.299 78.853"/>
        <path id="ba" d="M157.3 78.853C-25.336 143.14-11.56 241.075 16.763 295.5H397.93c81.424-147.031 59.974-270.37-38.174-290.244C343.457 1.954 329.012.498 316.042.498 233.25.504 211.035 59.94 157.299 78.853"/>
        <path id="bc" d="M157.3 78.853C-25.336 143.14-11.56 241.075 16.763 295.5H397.93c81.424-147.031 59.974-270.37-38.174-290.244C343.457 1.954 329.012.498 316.042.498 233.25.504 211.035 59.94 157.299 78.853"/>
        <path id="be" d="M157.3 78.853C-25.336 143.14-11.56 241.075 16.763 295.5H397.93c81.424-147.031 59.974-270.37-38.174-290.244C343.457 1.954 329.012.498 316.042.498 233.25.504 211.035 59.94 157.299 78.853"/>
        <path id="bg" d="M157.3 78.853C-25.336 143.14-11.56 241.075 16.763 295.5H397.93c81.424-147.031 59.974-270.37-38.174-290.244C343.457 1.954 329.012.498 316.042.498 233.25.504 211.035 59.94 157.299 78.853"/>
        <path id="bi" d="M157.3 78.853C-25.336 143.14-11.56 241.075 16.763 295.5H397.93c81.424-147.031 59.974-270.37-38.174-290.244C343.457 1.954 329.012.498 316.042.498 233.25.504 211.035 59.94 157.299 78.853"/>
        <path id="bk" d="M157.3 78.853C-25.336 143.14-11.56 241.075 16.763 295.5H397.93c81.424-147.031 59.974-270.37-38.174-290.244C343.457 1.954 329.012.498 316.042.498 233.25.504 211.035 59.94 157.299 78.853"/>
        <path id="bm" d="M157.3 78.853C-25.336 143.14-11.56 241.075 16.763 295.5H397.93c81.424-147.031 59.974-270.37-38.174-290.244C343.457 1.954 329.012.498 316.042.498 233.25.504 211.035 59.94 157.299 78.853z"/>
        <path id="bo" d="M157.3 78.853C-25.336 143.14-11.56 241.075 16.763 295.5H397.93c81.424-147.031 59.974-270.37-38.174-290.244C343.457 1.954 329.012.498 316.042.498 233.25.504 211.035 59.94 157.299 78.853"/>
        <path id="bq" d="M157.3 78.853C-25.336 143.14-11.56 241.075 16.763 295.5H397.93c81.424-147.031 59.974-270.37-38.174-290.244C343.457 1.954 329.012.498 316.042.498 233.25.504 211.035 59.94 157.299 78.853"/>
        <path id="bs" d="M157.3 78.853C-25.336 143.14-11.56 241.075 16.763 295.5H397.93c81.424-147.031 59.974-270.37-38.174-290.244C343.457 1.954 329.012.498 316.042.498 233.25.504 211.035 59.94 157.299 78.853"/>
        <path id="bu" d="M157.3 78.853C-25.336 143.14-11.56 241.075 16.763 295.5H397.93c81.424-147.031 59.974-270.37-38.174-290.244C343.457 1.954 329.012.498 316.042.498 233.25.504 211.035 59.94 157.299 78.853"/>
        <path id="bw" d="M157.3 78.853C-25.336 143.14-11.56 241.075 16.763 295.5H397.93c81.424-147.031 59.974-270.37-38.174-290.244C343.457 1.954 329.012.498 316.042.498 233.25.504 211.035 59.94 157.299 78.853"/>
        <path id="by" d="M157.3 78.853C-25.336 143.14-11.56 241.075 16.763 295.5H397.93c81.424-147.031 59.974-270.37-38.174-290.244C343.457 1.954 329.012.498 316.042.498 233.25.504 211.035 59.94 157.299 78.853"/>
        <path id="bA" d="M157.3 78.853C-25.336 143.14-11.56 241.075 16.763 295.5H397.93c81.424-147.031 59.974-270.37-38.174-290.244C343.457 1.954 329.012.498 316.042.498 233.25.504 211.035 59.94 157.299 78.853"/>
        <path id="bC" d="M157.3 78.853C-25.336 143.14-11.56 241.075 16.763 295.5H397.93c81.424-147.031 59.974-270.37-38.174-290.244C343.457 1.954 329.012.498 316.042.498 233.25.504 211.035 59.94 157.299 78.853"/>
        <path id="bE" d="M157.3 78.853C-25.336 143.14-11.56 241.075 16.763 295.5H397.93c81.424-147.031 59.974-270.37-38.174-290.244C343.457 1.954 329.012.498 316.042.498 233.25.504 211.035 59.94 157.299 78.853"/>
        <path id="bG" d="M157.3 78.853C-25.336 143.14-11.56 241.075 16.763 295.5H397.93c81.424-147.031 59.974-270.37-38.174-290.244C343.457 1.954 329.012.498 316.042.498 233.25.504 211.035 59.94 157.299 78.853z"/>
        <path id="bI" d="M157.3 78.853C-25.336 143.14-11.56 241.075 16.763 295.5H397.93c81.424-147.031 59.974-270.37-38.174-290.244C343.457 1.954 329.012.498 316.042.498 233.25.504 211.035 59.94 157.299 78.853z"/>
        <path id="bK" d="M157.3 78.853C-25.336 143.14-11.56 241.075 16.763 295.5H397.93c81.424-147.031 59.974-270.37-38.174-290.244C343.457 1.954 329.012.498 316.042.498 233.25.504 211.035 59.94 157.299 78.853z"/>
        <path id="bM" d="M157.3 78.853C-25.336 143.14-11.56 241.075 16.763 295.5H397.93c81.424-147.031 59.974-270.37-38.174-290.244C343.457 1.954 329.012.498 316.042.498 233.25.504 211.035 59.94 157.299 78.853z"/>
        <path id="bO" d="M157.3 78.853C-25.336 143.14-11.56 241.075 16.763 295.5H397.93c81.424-147.031 59.974-270.37-38.174-290.244C343.457 1.954 329.012.498 316.042.498 233.25.504 211.035 59.94 157.299 78.853"/>
        <path id="bQ" d="M157.3 78.853C-25.336 143.14-11.56 241.075 16.763 295.5H397.93c81.424-147.031 59.974-270.37-38.174-290.244C343.457 1.954 329.012.498 316.042.498 233.25.504 211.035 59.94 157.299 78.853"/>
        <path id="bS" d="M157.3 78.853C-25.336 143.14-11.56 241.075 16.763 295.5H397.93c81.424-147.031 59.974-270.37-38.174-290.244C343.457 1.954 329.012.498 316.042.498 233.25.504 211.035 59.94 157.299 78.853"/>
        <path id="bU" d="M157.3 78.853C-25.336 143.14-11.56 241.075 16.763 295.5H397.93c81.424-147.031 59.974-270.37-38.174-290.244C343.457 1.954 329.012.498 316.042.498 233.25.504 211.035 59.94 157.299 78.853"/>
        <path id="bW" d="M157.3 78.853C-25.336 143.14-11.56 241.075 16.763 295.5H397.93c81.424-147.031 59.974-270.37-38.174-290.244C343.457 1.954 329.012.498 316.042.498 233.25.504 211.035 59.94 157.299 78.853z"/>
        <path id="bY" d="M.99 8.188c-10 14.874 62.317 28.155 62.317 42.098h2.727C63.21 10.827 42.063 1.076 24.574 1.077 12.895 1.077 2.843 5.431.99 8.188z"/>
        <path id="ca" d="M1.47 27.786h2.728C6.266 1.376 41.35 9.192 30.1 3.181 26.84 1.44 23.827.676 21.072.676 8.589.68 1.47 16.366 1.47 27.787z"/>
        <path id="cc" d="M2.059.786A1.883 1.883 0 0 0 .182 2.824l2.687 32.154a1.884 1.884 0 0 0 1.879 1.725h26.48c.98 0 1.796-.75 1.878-1.725l2.688-32.154A1.883 1.883 0 0 0 33.917.787"/>
        <path id="ce" d="M2.059.786A1.883 1.883 0 0 0 .182 2.824l2.687 32.154a1.884 1.884 0 0 0 1.879 1.725h26.48c.98 0 1.796-.75 1.878-1.725l2.688-32.154A1.883 1.883 0 0 0 33.917.787"/>
        <path id="cg" d="M2.059.786A1.883 1.883 0 0 0 .182 2.824l2.687 32.154a1.884 1.884 0 0 0 1.879 1.725h26.48c.98 0 1.796-.75 1.878-1.725l2.688-32.154A1.883 1.883 0 0 0 33.917.787"/>
        <path id="ci" d="M2.059.786A1.883 1.883 0 0 0 .182 2.824l2.687 32.154a1.884 1.884 0 0 0 1.879 1.725h26.48c.98 0 1.796-.75 1.878-1.725l2.688-32.154A1.883 1.883 0 0 0 33.917.787"/>
    </defs>
    <g fill="none" fill-rule="evenodd" opacity=".498">
        <path fill="#313D56" d="M213.192 260.706l-13.701 33.999h6.006l19.145-34h-11.45zm.254.373H224l-18.722 33.25h-5.232l13.4-33.25z"/>
        <g transform="translate(0 .002)">
            <path fill="#313D56" d="M277.144 142.203h-92.656c-21.582 0-41.117 12.768-49.76 32.525l-.02.045c-7.051 16.116-5.239 34.989 5.524 48.906 10.36 13.398 26.6 22.024 44.858 22.024h91.054c6.462 0 11.701-5.233 11.701-11.69v-81.118c0-5.905-4.79-10.692-10.701-10.692m0 .375c5.694 0 10.326 4.628 10.326 10.317v81.119c0 6.238-5.081 11.314-11.326 11.314H185.09c-17.566 0-33.807-7.974-44.56-21.877-10.523-13.605-12.62-32.2-5.459-48.572 8.586-19.621 27.982-32.3 49.417-32.3h92.656"/>
            <path stroke="#606060" stroke-width=".5" d="M444.835 188.92c-.11-.925-.313-1.999-.568-3.128-1.898-8.421-5.534-16.409-10.851-23.213-10.66-13.633-25.381-20.473-42.215-20.376h-92.654c-5.91 0-10.702 4.787-10.702 10.692v75.833c0 9.375 7.61 16.975 16.994 16.975H390.6"/>
            <path fill="#313D56" d="M208.141 260.703h-11.449l-13.7 34h6.005l19.144-34zm-.64.375l-18.723 33.25h-5.231l13.4-33.25H207.5z"/>
            <path fill="#606060" d="M380.234 260.703h-11.45l19.145 34h6.006l-13.701-34zm-.254.375l13.4 33.25h-5.232l-18.722-33.25h10.554z"/>
            <path fill="#606060" d="M447.254 188.704a14.974 14.974 0 0 0-10.617 4.392l-27.713 27.685c-6.404 6.398-14.919 9.923-23.976 9.923H190.744c-9.059 0-17.574-3.525-23.976-9.923l-27.713-27.685a14.98 14.98 0 0 0-10.619-4.392 14.98 14.98 0 0 0-10.617 4.392c-5.863 5.857-5.863 15.357 0 21.214l27.713 27.686c12.077 12.063 28.134 18.708 45.212 18.708h194.204c17.08 0 33.134-6.645 45.21-18.708l2.746-2.744 3.029-3.024 21.938-21.918c5.865-5.857 5.865-15.357 0-21.214a14.974 14.974 0 0 0-10.617-4.392m0 .375c3.91 0 7.587 1.52 10.353 4.282 5.705 5.703 5.705 14.98 0 20.684l-21.94 21.918-3.027 3.024-2.748 2.743c-12.006 11.993-27.965 18.599-44.944 18.599H190.744c-16.98 0-32.94-6.606-44.946-18.599l-27.713-27.685c-5.707-5.703-5.707-14.98 0-20.684a14.552 14.552 0 0 1 10.351-4.282c3.911 0 7.589 1.52 10.353 4.282l27.713 27.686c6.474 6.47 15.082 10.032 24.242 10.032h194.204c9.158 0 17.766-3.563 24.24-10.032l27.713-27.686a14.558 14.558 0 0 1 10.353-4.282"/>
            <path fill="#313D56" d="M363.734 260.703h-11.45l19.145 34h6.006l-13.701-34zm-.254.375l13.4 33.25h-5.232l-18.72-33.25h10.552z"/>
            <path stroke="#313D56" stroke-width=".5" d="M84.268 294.704h-41.29"/>
            <path stroke="#606060" stroke-width=".5" d="M492.299 294.704H115.424"/>
            <path stroke="#313D56" stroke-width=".5" d="M287.845 230.703v-77.808M384.95 230.703c9.055 0 17.57-3.523 23.974-9.92M190.743 230.703h194.206M166.767 220.782c6.404 6.397 14.92 9.92 23.976 9.92M139.054 193.096l27.713 27.686M63.247 294.704v-164.75"/>
            <path stroke="#606060" stroke-width=".5" d="M94.658 114.245l-10.39-35.292H42.226l-15.015 51h40.72"/>
            <path stroke="#313D56" stroke-width=".5" d="M73.007 129.953v15.095"/>
            <path fill="#313D56" d="M73.007 145.047a2.627 2.627 0 0 0-2.628 2.625 2.627 2.627 0 0 0 5.256 0 2.627 2.627 0 0 0-2.628-2.625m0 .375a2.254 2.254 0 0 1 2.252 2.25c0 1.24-1.01 2.25-2.252 2.25a2.254 2.254 0 0 1-2.252-2.25c0-1.24 1.01-2.25 2.252-2.25M94.658 114.245c-13.165 5.76-26.726 15.708-26.726 15.708h31.351l-4.625-15.708zm-.24.515l4.363 14.818H69.1c3.263-2.31 14.441-9.991 25.318-14.818z"/>
            <path stroke="#313D56" stroke-width=".5" d="M247.775 230.703c0-7.74-7.84-14.014-17.51-14.014-9.671 0-17.51 6.274-17.51 14.014"/>
            <path stroke="#313D56" stroke-width=".5" d="M237.27 224.346c-1.283 0-4.65 1.053-4.65 3.86-1.942 0-8.328-.516-8.328 2.683M218.63 230.766c0-3.901-3.556-7.062-7.94-7.062-4.385 0-7.94 3.16-7.94 7.062"/>
            <path fill="#313D56" d="M245.836 228.429c1.564.969 3.462 1.124 5.286 1.083 1.816.003 3.768-.306 5.52.54.456.162.794.512 1.163.813.34.328.57.756.858 1.131l.555 1.297c.143.446.233.905.352 1.356.241.905.267 1.841.41 2.76l.11 2.783a.188.188 0 0 1-.376.015v-.015l-.078-2.757c-.13-.905-.146-1.834-.373-2.72-.31-1.76-1.06-3.654-2.734-4.435-1.644-.803-3.573-.518-5.402-.513-1.835.039-3.797-.114-5.425-1.122a.127.127 0 1 1 .132-.216h.002z"/>
            <path stroke="#313D56" stroke-width=".5" d="M211.053 224.009l1.803-2.432c.408-.55 1.28-.334 1.383.344l.474 3.126M205.092 226.381l.123-3.024a.772.772 0 0 1 1.338-.492l2.15 2.32M214.77 224.518c-.438.547-1.352 2.046-1.785 2.884"/>
            <mask id="b" fill="#fff">
                <use xlink:href="#a"/>
            </mask>
            <path fill="#FFF" d="M324.914 239.063H458.93v-2.625H324.914z" mask="url(#b)"/>
            <path fill="#606060" d="M324.726 239.25H459.12v-3H324.726v3zm.376-.375h133.641v-2.25H325.102v2.25z" mask="url(#b)"/>
            <path fill="#313D56" d="M352.154 239.557h-5.362l-18.204 55.147h1.736l21.83-55.147zm-.55.375l-21.535 54.397h-.963l17.957-54.397h4.54z" mask="url(#b)"/>
            <path fill="#606060" d="M440.063 238.889h-5.407l24.463 55.815h1.737l-20.793-55.815zm-.261.375l20.513 55.065h-.952l-24.133-55.065h4.572zM398.33 239.557h-5.36l8.42 55.147h1.737l-4.796-55.147zm-.343.375l4.731 54.397h-1.004l-8.308-54.397h4.581z" mask="url(#b)"/>
            <path fill="#313D56" d="M383.963 216.853h-17.22c-.234 0-.42.19-.408.425.125 2.373.904 14.058 4.359 18.732.08.106.204.165.338.165h8.644a.419.419 0 0 0 .338-.165c3.453-4.674 4.232-16.36 4.357-18.732a.403.403 0 0 0-.408-.425m0 .375l.034.03c-.12 2.288-.892 13.935-4.321 18.542h-2.82l-5.86-.014c-3.394-4.591-4.166-16.24-4.253-18.558h17.22" mask="url(#b)"/>
            <path stroke="#313D56" stroke-linecap="round" stroke-width=".5" d="M367.07 221.067c-1.6-1.6-5.058-1.262-4.046 3.177 1.012 4.438 5.661 6.097 5.661 6.097" mask="url(#b)"/>
            <path stroke="#313D56" stroke-width=".5" d="M371.264 187.641c0 6.854 7.026 8.753 7.026 17.588M372.169 200.376c0 3.961 4.06 5.06 4.06 10.165" mask="url(#b)"/>
            <path stroke="#606060" stroke-width=".5" d="M173.958 63.276h92.734v-5.285h-92.734z" mask="url(#b)"/>
            <path stroke="#606060" stroke-width=".5" d="M203.02 58.364h-4.373a.912.912 0 0 1-.913-.912V34.505c0-.504.409-.912.913-.912h4.374c.504 0 .913.408.913.912v22.947a.912.912 0 0 1-.913.912z" mask="url(#b)"/>
            <path stroke="#606060" stroke-width=".5" d="M209.22 58.364h-4.374a.913.913 0 0 1-.913-.912V32.554c0-.504.41-.912.913-.912h4.374c.504 0 .913.408.913.912v24.898a.912.912 0 0 1-.913.912z" mask="url(#b)"/>
            <path stroke="#606060" stroke-width=".5" d="M215.999 58.364h-4.954a.913.913 0 0 1-.913-.912V34.505c0-.504.41-.912.913-.912H216c.504 0 .912.408.912.912v22.947a.912.912 0 0 1-.912.912z" mask="url(#b)"/>
            <path fill="#313D56" d="M222.776 33.594h-4.952a.912.912 0 0 0-.912.912v22.947c0 .504.408.912.912.912h4.952a.912.912 0 0 0 .913-.912V34.506a.912.912 0 0 0-.913-.912m0 .375c.298 0 .538.241.538.537v22.947c0 .295-.24.537-.538.537h-4.952a.538.538 0 0 1-.537-.537V34.506c0-.296.24-.537.537-.537h4.952M229.555 31.265h-4.952a.912.912 0 0 0-.913.912v25.275c0 .504.409.912.913.912h4.952a.912.912 0 0 0 .913-.912V32.177a.912.912 0 0 0-.913-.912m0 .375c.296 0 .538.242.538.537v25.275a.539.539 0 0 1-.538.537h-4.952a.538.538 0 0 1-.537-.537V32.177c0-.295.24-.537.537-.537h4.952M248.302 34.796a.912.912 0 0 0-.646.267l-3.503 3.5a.913.913 0 0 0 0 1.29l17.89 17.87a.911.911 0 0 0 1.292 0l3.503-3.497a.913.913 0 0 0 0-1.29l-17.89-17.873a.917.917 0 0 0-.646-.267m0 .375a.53.53 0 0 1 .38.158l17.89 17.872c.1.1.156.236.156.38a.535.535 0 0 1-.156.38l-3.503 3.497a.53.53 0 0 1-.38.158.53.53 0 0 1-.38-.158l-17.89-17.87a.536.536 0 0 1 0-.76l3.503-3.5a.53.53 0 0 1 .38-.157" mask="url(#b)"/>
            <path fill="#313D56" d="M233.483 31.265h-2.1a.913.913 0 0 0-.915.912v25.275c0 .504.41.912.915.912h2.1a.912.912 0 0 0 .912-.912V32.177a.912.912 0 0 0-.912-.912m0 .375c.296 0 .536.242.536.537v25.275c0 .296-.24.537-.536.537h-2.1a.538.538 0 0 1-.54-.537V32.177c0-.295.241-.537.54-.537h2.1M237.41 30.392h-2.1a.913.913 0 0 0-.915.912v26.15c0 .502.41.91.914.91h2.101a.912.912 0 0 0 .913-.91v-26.15a.912.912 0 0 0-.913-.912m0 .375c.296 0 .538.241.538.537v26.15a.537.537 0 0 1-.538.535h-2.1a.538.538 0 0 1-.54-.536v-26.15c0-.295.242-.536.54-.536h2.1" mask="url(#b)"/>
            <path fill="#313D56" d="M241.058 35.733a.899.899 0 0 0-.455.123l-1.821 1.049a.912.912 0 0 0-.332 1.246l11.13 19.259a.91.91 0 0 0 1.245.333l1.82-1.05a.91.91 0 0 0 .334-1.245l-11.13-19.259a.912.912 0 0 0-.79-.456m0 .375c.191 0 .37.104.466.269l11.13 19.258a.537.537 0 0 1-.197.734l-1.82 1.05a.538.538 0 0 1-.733-.197l-11.13-19.258a.536.536 0 0 1 .195-.734l1.821-1.05a.54.54 0 0 1 .267-.072" mask="url(#b)"/>
            <path stroke="#313D56" stroke-width=".5" d="M247.349 227.618c-1.63-.577-2.434-1.723-2.434-1.723" mask="url(#b)"/>
            <path fill="#E5E5E5" d="M16.764 294.704c-28.324-54.426-42.099-151.565 140.535-215.85 62.154-21.878 82.123-97.967 202.457-73.6 98.146 19.876 119.597 142.418 38.172 289.45H16.764z" mask="url(#b)"/>
        </g>
        <g transform="translate(0 .002)">
            <mask id="d" fill="#fff">
                <use xlink:href="#c"/>
            </mask>
            <path fill="#E5E5E5" d="M205.497 294.704h-6.006l13.7-34h11.45z" mask="url(#d)"/>
            <mask id="f" fill="#fff">
                <use xlink:href="#e"/>
            </mask>
            <path fill="#E5E5E5" d="M287.845 234.013c0 6.456-5.239 11.69-11.701 11.69H185.09c-18.258 0-34.498-8.627-44.858-22.024-10.763-13.917-12.575-32.791-5.524-48.906l.02-.045c8.643-19.756 28.178-32.526 49.76-32.526h92.656c5.911 0 10.701 4.788 10.701 10.692v81.119z" mask="url(#f)"/>
            <mask id="h" fill="#fff">
                <use xlink:href="#g"/>
            </mask>
            <path fill="#E5E5E5" d="M287.845 228.728c0 9.375 7.608 16.975 16.992 16.975h85.764c18.257 0 34.497-8.628 44.859-22.024 10.763-13.917 12.573-32.79 5.522-48.906l-.018-.045c-8.644-19.757-28.178-32.525-49.762-32.525h-92.654c-5.912 0-10.703 4.787-10.703 10.692v75.833z" mask="url(#h)"/>
            <mask id="j" fill="#fff">
                <use xlink:href="#i"/>
            </mask>
            <path fill="#E5E5E5" d="M188.997 294.704h-6.006l13.701-34h11.45z" mask="url(#j)"/>
            <mask id="l" fill="#fff">
                <use xlink:href="#k"/>
            </mask>
            <path fill="#E5E5E5" d="M387.929 294.704h6.006l-13.701-34h-11.45z" mask="url(#l)"/>
            <mask id="n" fill="#fff">
                <use xlink:href="#m"/>
            </mask>
            <path fill="#E5E5E5" d="M384.95 260.703H190.742c-17.078 0-33.135-6.643-45.211-18.708l-27.713-27.685c-5.862-5.858-5.862-15.356 0-21.213 5.865-5.858 15.372-5.858 21.236 0l27.713 27.685c6.403 6.398 14.917 9.921 23.975 9.921H384.95c9.056 0 17.57-3.523 23.975-9.92l27.713-27.686c5.863-5.858 15.37-5.858 21.234 0 5.865 5.857 5.865 15.355 0 21.213l-27.713 27.685c-12.077 12.065-28.13 18.708-45.209 18.708" mask="url(#n)"/>
            <mask id="p" fill="#fff">
                <use xlink:href="#o"/>
            </mask>
            <path fill="#E5E5E5" d="M371.429 294.704h6.006l-13.701-34h-11.45z" mask="url(#p)"/>
            <mask id="r" fill="#fff">
                <use xlink:href="#q"/>
            </mask>
            <path fill="#E5E5E5" d="M84.268 294.704h-41.29" mask="url(#r)"/>
            <mask id="t" fill="#fff">
                <use xlink:href="#s"/>
            </mask>
            <path fill="#E5E5E5" d="M492.299 294.704H115.424" mask="url(#t)"/>
            <mask id="v" fill="#fff">
                <use xlink:href="#u"/>
            </mask>
            <path fill="#E5E5E5" d="M287.845 230.703v-77.808" mask="url(#v)"/>
            <mask id="x" fill="#fff">
                <use xlink:href="#w"/>
            </mask>
            <path fill="#E5E5E5" d="M384.95 230.703c9.055 0 17.57-3.523 23.974-9.92" mask="url(#x)"/>
            <mask id="z" fill="#fff">
                <use xlink:href="#y"/>
            </mask>
            <path fill="#E5E5E5" d="M190.743 230.703h194.206" mask="url(#z)"/>
            <mask id="B" fill="#fff">
                <use xlink:href="#A"/>
            </mask>
            <path fill="#E5E5E5" d="M166.767 220.782c6.404 6.397 14.92 9.92 23.976 9.92" mask="url(#B)"/>
            <mask id="D" fill="#fff">
                <use xlink:href="#C"/>
            </mask>
            <path fill="#E5E5E5" d="M139.054 193.096l27.713 27.686" mask="url(#D)"/>
            <mask id="F" fill="#fff">
                <use xlink:href="#E"/>
            </mask>
            <path fill="#E5E5E5" d="M436.637 193.096c5.863-5.856 15.818-5.856 21.681 0" mask="url(#F)"/>
            <mask id="H" fill="#fff">
                <use xlink:href="#G"/>
            </mask>
            <path fill="#E5E5E5" d="M408.923 220.782l27.714-27.686" mask="url(#H)"/>
            <mask id="J" fill="#fff">
                <use xlink:href="#I"/>
            </mask>
            <path fill="#E5E5E5" d="M63.247 294.704v-164.75" mask="url(#J)"/>
            <g>
                <mask id="L" fill="#fff">
                    <use xlink:href="#K"/>
                </mask>
                <path fill="#E5E5E5" d="M94.658 114.245l-10.39-35.292H42.226l-15.015 51h40.72" mask="url(#L)"/>
            </g>
            <g>
                <mask id="N" fill="#fff">
                    <use xlink:href="#M"/>
                </mask>
                <path fill="#E5E5E5" d="M73.007 129.953v15.095" mask="url(#N)"/>
            </g>
            <g>
                <mask id="P" fill="#fff">
                    <use xlink:href="#O"/>
                </mask>
                <path fill="#E5E5E5" d="M75.635 147.672a2.627 2.627 0 0 0-5.256 0 2.627 2.627 0 0 0 5.256 0" mask="url(#P)"/>
            </g>
            <g>
                <mask id="R" fill="#fff">
                    <use xlink:href="#Q"/>
                </mask>
                <path fill="#E5E5E5" d="M94.658 114.245l4.625 15.708H67.932s13.561-9.948 26.726-15.708" mask="url(#R)"/>
            </g>
            <g>
                <mask id="T" fill="#fff">
                    <use xlink:href="#S"/>
                </mask>
                <path fill="#E5E5E5" d="M247.775 230.703c0-7.74-7.84-14.014-17.51-14.014-9.671 0-17.51 6.274-17.51 14.014" mask="url(#T)"/>
            </g>
            <g>
                <mask id="V" fill="#fff">
                    <use xlink:href="#U"/>
                </mask>
                <path fill="#E5E5E5" d="M237.27 224.346c-1.283 0-4.65 1.053-4.65 3.86-1.942 0-8.328-.516-8.328 2.683" mask="url(#V)"/>
            </g>
            <g>
                <mask id="X" fill="#fff">
                    <use xlink:href="#W"/>
                </mask>
                <path fill="#E5E5E5" d="M218.63 230.766c0-3.901-3.556-7.062-7.94-7.062-4.385 0-7.94 3.16-7.94 7.062" mask="url(#X)"/>
            </g>
            <g>
                <mask id="Z" fill="#fff">
                    <use xlink:href="#Y"/>
                </mask>
                <path fill="#E5E5E5" d="M245.768 228.537c6.034 3.715 14.134-4.523 14.134 11.656" mask="url(#Z)"/>
            </g>
            <g>
                <mask id="ab" fill="#fff">
                    <use xlink:href="#aa"/>
                </mask>
                <path fill="#E5E5E5" d="M211.053 224.009l1.803-2.432c.408-.55 1.28-.334 1.383.344l.474 3.126" mask="url(#ab)"/>
            </g>
            <g>
                <mask id="ad" fill="#fff">
                    <use xlink:href="#ac"/>
                </mask>
                <path fill="#E5E5E5" d="M205.092 226.381l.123-3.024a.772.772 0 0 1 1.338-.492l2.15 2.32" mask="url(#ad)"/>
            </g>
            <g>
                <mask id="af" fill="#fff">
                    <use xlink:href="#ae"/>
                </mask>
                <path fill="#E5E5E5" d="M214.77 224.518c-.438.547-1.352 2.046-1.785 2.884" mask="url(#af)"/>
            </g>
            <g>
                <mask id="ah" fill="#fff">
                    <use xlink:href="#ag"/>
                </mask>
                <path fill="#E5E5E5" d="M324.727 237.75H459.12" mask="url(#ah)"/>
            </g>
            <g>
                <mask id="aj" fill="#fff">
                    <use xlink:href="#ai"/>
                </mask>
                <path fill="#E5E5E5" d="M330.324 294.704h-1.736l18.204-55.148h5.362z" mask="url(#aj)"/>
            </g>
            <g>
                <mask id="al" fill="#fff">
                    <use xlink:href="#ak"/>
                </mask>
                <path fill="#E5E5E5" d="M460.855 294.704h-1.735l-24.171-55.148h5.362z" mask="url(#al)"/>
            </g>
            <g>
                <mask id="an" fill="#fff">
                    <use xlink:href="#am"/>
                </mask>
                <path fill="#E5E5E5" d="M403.127 294.704h-1.736l-8.423-55.148h5.363z" mask="url(#an)"/>
            </g>
            <g>
                <mask id="ap" fill="#fff">
                    <use xlink:href="#ao"/>
                </mask>
                <path fill="#E5E5E5" d="M376.855 216.853h-10.11a.405.405 0 0 0-.41.425c.124 2.373.905 14.058 4.358 18.732.08.106.204.165.338.165h8.644a.42.42 0 0 0 .34-.165c3.451-4.674 4.232-16.36 4.357-18.732a.404.404 0 0 0-.41-.425h-7.107z" mask="url(#ap)"/>
            </g>
            <g>
                <mask id="ar" fill="#fff">
                    <use xlink:href="#aq"/>
                </mask>
                <path fill="#E5E5E5" d="M367.07 221.067c-1.6-1.6-5.058-1.262-4.046 3.177 1.012 4.438 5.661 6.097 5.661 6.097" mask="url(#ar)"/>
            </g>
            <g>
                <mask id="at" fill="#fff">
                    <use xlink:href="#as"/>
                </mask>
                <path fill="#E5E5E5" d="M371.264 187.641c0 6.854 7.026 8.753 7.026 17.588" mask="url(#at)"/>
            </g>
            <g>
                <mask id="av" fill="#fff">
                    <use xlink:href="#au"/>
                </mask>
                <path fill="#E5E5E5" d="M372.169 200.376c0 3.961 4.06 5.06 4.06 10.165" mask="url(#av)"/>
            </g>
            <mask id="ax" fill="#fff">
                <use xlink:href="#aw"/>
            </mask>
            <path fill="#E5E5E5" d="M173.958 63.276h92.734v-5.285h-92.734z" mask="url(#ax)"/>
            <path fill="#E5E5E5" d="M203.02 57.992h-4.373a.912.912 0 0 1-.913-.912V34.133c0-.505.409-.913.913-.913h4.374c.504 0 .913.409.913.913V57.08a.912.912 0 0 1-.913.912" mask="url(#ax)"/>
            <path fill="#E5E5E5" d="M209.22 57.992h-4.374a.913.913 0 0 1-.913-.912V32.18c0-.504.41-.912.913-.912h4.374c.504 0 .913.408.913.912V57.08a.912.912 0 0 1-.913.912" mask="url(#ax)"/>
            <path fill="#E5E5E5" d="M215.999 57.992h-4.954a.913.913 0 0 1-.913-.912V34.133c0-.505.41-.913.913-.913H216c.504 0 .912.409.912.913V57.08a.912.912 0 0 1-.912.912M222.776 57.992h-4.952a.912.912 0 0 1-.912-.912V34.133c0-.505.408-.913.912-.913h4.952c.505 0 .913.409.913.913V57.08a.912.912 0 0 1-.913.912M229.555 57.992h-4.952a.912.912 0 0 1-.913-.912V31.805c0-.505.409-.913.913-.913h4.952c.505 0 .913.409.913.913V57.08a.912.912 0 0 1-.913.912M266.837 54.225l-3.503 3.5a.913.913 0 0 1-1.29 0l-17.89-17.873a.91.91 0 0 1 0-1.29l3.503-3.498a.91.91 0 0 1 1.29 0l17.89 17.871a.913.913 0 0 1 0 1.29" mask="url(#ax)"/>
            <path fill="#E5E5E5" d="M233.483 57.992h-2.1a.913.913 0 0 1-.915-.912V31.805c0-.505.41-.913.915-.913h2.1a.91.91 0 0 1 .912.913V57.08a.91.91 0 0 1-.912.912" mask="url(#ax)"/>
            <path fill="#E5E5E5" d="M237.41 57.992h-2.1a.913.913 0 0 1-.915-.912V30.93c0-.503.41-.91.914-.91h2.101c.505 0 .913.407.913.91v26.15a.912.912 0 0 1-.913.912" mask="url(#ax)"/>
            <path fill="#E5E5E5" d="M252.645 56.693l-1.82 1.05a.913.913 0 0 1-1.246-.333l-11.13-19.259a.913.913 0 0 1 .334-1.246l1.82-1.05a.914.914 0 0 1 1.248.334l11.129 19.257a.912.912 0 0 1-.335 1.247M247.349 227.618c-1.63-.577-2.434-1.723-2.434-1.723" mask="url(#ax)"/>
        </g>
        <g transform="translate(0 .002)">
            <mask id="az" fill="#fff">
                <use xlink:href="#ay"/>
            </mask>
            <path fill="#606060" d="M205.497 294.704h-6.006l13.7-34h11.45z" mask="url(#az)"/>
            <mask id="aB" fill="#fff">
                <use xlink:href="#aA"/>
            </mask>
            <path fill="#9C9B9B" d="M287.845 234.013c0 6.456-5.239 11.69-11.701 11.69H185.09c-18.258 0-34.498-8.627-44.858-22.024-10.763-13.917-12.575-32.791-5.524-48.906l.02-.045c8.643-19.756 28.178-32.526 49.76-32.526h92.656c5.911 0 10.701 4.788 10.701 10.692v81.119z" mask="url(#aB)"/>
            <mask id="aD" fill="#fff">
                <use xlink:href="#aC"/>
            </mask>
            <path fill="#9C9B9B" d="M287.845 228.728c0 9.375 7.608 16.975 16.992 16.975h85.764c18.257 0 34.497-8.628 44.859-22.024 10.763-13.917 12.573-32.79 5.522-48.906l-.018-.045c-8.644-19.757-28.178-32.525-49.762-32.525h-92.654c-5.912 0-10.703 4.787-10.703 10.692v75.833z" mask="url(#aD)"/>
            <mask id="aF" fill="#fff">
                <use xlink:href="#aE"/>
            </mask>
            <path fill="#606060" d="M188.997 294.704h-6.006l13.701-34h11.45z" mask="url(#aF)"/>
            <mask id="aH" fill="#fff">
                <use xlink:href="#aG"/>
            </mask>
            <path fill="#606060" d="M387.929 294.704h6.006l-13.701-34h-11.45z" mask="url(#aH)"/>
            <mask id="aJ" fill="#fff">
                <use xlink:href="#aI"/>
            </mask>
            <path fill="#9C9B9B" d="M384.95 260.703H190.742c-17.078 0-33.135-6.643-45.211-18.708l-27.713-27.685c-5.862-5.858-5.862-15.356 0-21.213 5.865-5.858 15.372-5.858 21.236 0l27.713 27.685c6.403 6.398 14.917 9.921 23.975 9.921H384.95c9.056 0 17.57-3.523 23.975-9.92l27.713-27.686c5.863-5.858 15.37-5.858 21.234 0 5.865 5.857 5.865 15.355 0 21.213l-27.713 27.685c-12.077 12.065-28.13 18.708-45.209 18.708" mask="url(#aJ)"/>
            <mask id="aL" fill="#fff">
                <use xlink:href="#aK"/>
            </mask>
            <path fill="#4A4B4D" d="M140.444 196.376c-6.311-4.592-16.933-3.995-26.261 2.65-1.705 5.202-.503 11.148 3.636 15.284l5.401 5.395c12.952-11.797 25.787-17.1 17.224-23.33" mask="url(#aL)"/>
            <mask id="aN" fill="#fff">
                <use xlink:href="#aM"/>
            </mask>
            <path fill="#606060" d="M371.429 294.704h6.006l-13.701-34h-11.45z" mask="url(#aN)"/>
            <mask id="aP" fill="#fff">
                <use xlink:href="#aO"/>
            </mask>
            <path stroke="#606060" stroke-width=".5" d="M84.268 294.704h-41.29" mask="url(#aP)"/>
            <mask id="aR" fill="#fff">
                <use xlink:href="#aQ"/>
            </mask>
            <path stroke="#606060" stroke-width=".5" d="M492.299 294.704H115.424" mask="url(#aR)"/>
            <mask id="aT" fill="#fff">
                <use xlink:href="#aS"/>
            </mask>
            <path stroke="#606060" stroke-width=".5" d="M287.845 230.703v-77.808" mask="url(#aT)"/>
            <mask id="aV" fill="#fff">
                <use xlink:href="#aU"/>
            </mask>
            <path stroke="#606060" stroke-width=".5" d="M384.95 230.703c9.055 0 17.57-3.523 23.974-9.92" mask="url(#aV)"/>
            <mask id="aX" fill="#fff">
                <use xlink:href="#aW"/>
            </mask>
            <path stroke="#606060" stroke-width=".5" d="M190.743 230.703h194.206" mask="url(#aX)"/>
            <mask id="aZ" fill="#fff">
                <use xlink:href="#aY"/>
            </mask>
            <path stroke="#606060" stroke-width=".5" d="M166.767 220.782c6.404 6.397 14.92 9.92 23.976 9.92" mask="url(#aZ)"/>
            <mask id="bb" fill="#fff">
                <use xlink:href="#ba"/>
            </mask>
            <path stroke="#606060" stroke-width=".5" d="M139.054 193.096l27.713 27.686" mask="url(#bb)"/>
            <mask id="bd" fill="#fff">
                <use xlink:href="#bc"/>
            </mask>
            <path stroke="#FFF" stroke-width=".5" d="M436.637 193.096c5.863-5.856 15.818-5.856 21.681 0" mask="url(#bd)"/>
            <mask id="bf" fill="#fff">
                <use xlink:href="#be"/>
            </mask>
            <path fill="#F7C5C7" d="M408.923 220.782l27.714-27.686" mask="url(#bf)"/>
            <path stroke="#FFF" stroke-width=".5" d="M408.923 220.782l27.714-27.686" mask="url(#bf)"/>
            <g>
                <mask id="bh" fill="#fff">
                    <use xlink:href="#bg"/>
                </mask>
                <path stroke="#606060" stroke-width=".5" d="M63.247 294.704v-164.75" mask="url(#bh)"/>
            </g>
            <g>
                <mask id="bj" fill="#fff">
                    <use xlink:href="#bi"/>
                </mask>
                <path fill="#F7F7F7" d="M94.658 114.245l-10.39-35.292H42.226l-15.015 51h40.72" mask="url(#bj)"/>
            </g>
            <g>
                <mask id="bl" fill="#fff">
                    <use xlink:href="#bk"/>
                </mask>
                <path stroke="#606060" stroke-width=".5" d="M73.007 129.953v15.095" mask="url(#bl)"/>
            </g>
            <g>
                <mask id="bn" fill="#fff">
                    <use xlink:href="#bm"/>
                </mask>
                <path stroke="#606060" stroke-width=".5" d="M75.635 147.672a2.627 2.627 0 0 0-5.256 0 2.627 2.627 0 0 0 5.256 0z" mask="url(#bn)"/>
            </g>
            <g>
                <mask id="bp" fill="#fff">
                    <use xlink:href="#bo"/>
                </mask>
                <path fill="#F7F7F7" d="M94.658 114.245l4.625 15.708H67.932s13.561-9.948 26.726-15.708" mask="url(#bp)"/>
            </g>
            <g>
                <mask id="br" fill="#fff">
                    <use xlink:href="#bq"/>
                </mask>
                <path fill="#6F6F6E" d="M247.775 230.703c0-7.74-7.84-14.014-17.51-14.014-9.671 0-17.51 6.274-17.51 14.014" mask="url(#br)"/>
            </g>
            <g>
                <mask id="bt" fill="#fff">
                    <use xlink:href="#bs"/>
                </mask>
                <path stroke="#FFF" stroke-width=".5" d="M237.27 224.346c-1.283 0-4.65 1.053-4.65 3.86-1.942 0-8.328-.516-8.328 2.683" mask="url(#bt)"/>
            </g>
            <g>
                <mask id="bv" fill="#fff">
                    <use xlink:href="#bu"/>
                </mask>
                <path fill="#6F6F6E" d="M218.63 230.766c0-3.901-3.556-7.062-7.94-7.062-4.385 0-7.94 3.16-7.94 7.062" mask="url(#bv)"/>
            </g>
            <g>
                <mask id="bx" fill="#fff">
                    <use xlink:href="#bw"/>
                </mask>
                <path fill="#6F6F6E" d="M246.569 227.24c1.17.833 2.764 1.018 4.534.974.875.002 1.832-.087 2.84-.08 1.022.046 2.166.091 3.315.669.596.217 1.08.642 1.576 1.048.461.423.774.938 1.146 1.425l.713 1.522c.177.506.302 1.002.467 1.506.324 1.013.408 1.971.62 2.974l.374 2.914a2.27 2.27 0 1 1-4.513.082l.009-.082c.084-.867.123-1.743.184-2.624-.061-.823-.018-1.73-.16-2.508-.065-.39-.116-.805-.212-1.177l-.363-1.03c-.188-.242-.314-.569-.514-.785-.218-.177-.378-.441-.673-.538-1.028-.597-2.869-.507-4.765-.465-1.89.036-4.158-.088-6.178-1.232l-.04-.021a1.526 1.526 0 1 1 1.506-2.657c.047.026.092.054.134.084" mask="url(#bx)"/>
            </g>
            <g>
                <mask id="bz" fill="#fff">
                    <use xlink:href="#by"/>
                </mask>
                <path fill="#6F6F6E" d="M211.053 224.009l1.803-2.432c.408-.55 1.28-.334 1.383.344l.474 3.126" mask="url(#bz)"/>
            </g>
            <g>
                <mask id="bB" fill="#fff">
                    <use xlink:href="#bA"/>
                </mask>
                <path fill="#6F6F6E" d="M205.092 226.381l.123-3.024a.772.772 0 0 1 1.338-.492l2.15 2.32" mask="url(#bB)"/>
            </g>
            <g>
                <mask id="bD" fill="#fff">
                    <use xlink:href="#bC"/>
                </mask>
                <path stroke="#FFF" stroke-width=".5" d="M214.77 224.518c-.438.547-1.352 2.046-1.785 2.884" mask="url(#bD)"/>
            </g>
            <g>
                <mask id="bF" fill="#fff">
                    <use xlink:href="#bE"/>
                </mask>
                <path stroke="#EDEDED" stroke-width="3" d="M324.727 237.75H459.12" mask="url(#bF)"/>
            </g>
            <g>
                <mask id="bH" fill="#fff">
                    <use xlink:href="#bG"/>
                </mask>
                <path fill="#606060" d="M330.324 294.704h-1.736l18.297-55.454h5.364z" mask="url(#bH)"/>
            </g>
            <g>
                <mask id="bJ" fill="#fff">
                    <use xlink:href="#bI"/>
                </mask>
                <path fill="#313D56" d="M460.855 294.704h-1.735l-24.171-55.148h5.362z" mask="url(#bJ)"/>
            </g>
            <g>
                <mask id="bL" fill="#fff">
                    <use xlink:href="#bK"/>
                </mask>
                <path fill="#606060" d="M403.127 294.704h-1.736l-8.423-55.454h5.363z" mask="url(#bL)"/>
            </g>
            <g>
                <mask id="bN" fill="#fff">
                    <use xlink:href="#bM"/>
                </mask>
                <path fill="#EDEDED" d="M376.855 216.853h-10.11a.405.405 0 0 0-.41.425c.124 2.373.905 14.058 4.358 18.732.08.106.204.165.338.165h8.644a.42.42 0 0 0 .34-.165c3.451-4.674 4.232-16.36 4.357-18.732a.404.404 0 0 0-.41-.425h-7.107z" mask="url(#bN)"/>
            </g>
            <g>
                <mask id="bP" fill="#fff">
                    <use xlink:href="#bO"/>
                </mask>
                <path fill="#606060" d="M383.963 216.853h-4.655c.236 0 .423.19.41.425-.125 2.373.336 15.255-1.273 18.732-.056.121-.205.165-.337.165h1.568a.419.419 0 0 0 .338-.165c3.453-4.674 4.232-16.36 4.357-18.732a.403.403 0 0 0-.408-.425" mask="url(#bP)"/>
            </g>
            <g>
                <mask id="bR" fill="#fff">
                    <use xlink:href="#bQ"/>
                </mask>
                <path stroke="#EDEDED" stroke-linecap="round" stroke-width="1.125" d="M367.07 221.067c-1.6-1.6-5.058-1.262-4.046 3.177 1.012 4.438 5.661 6.097 5.661 6.097" mask="url(#bR)"/>
            </g>
            <g>
                <mask id="bT" fill="#fff">
                    <use xlink:href="#bS"/>
                </mask>
                <path stroke="#606060" stroke-width=".5" d="M371.264 187.641c0 6.854 7.026 8.753 7.026 17.588" mask="url(#bT)"/>
            </g>
            <g>
                <mask id="bV" fill="#fff">
                    <use xlink:href="#bU"/>
                </mask>
                <path stroke="#606060" stroke-width=".5" d="M372.169 200.376c0 3.961 4.06 5.06 4.06 10.165" mask="url(#bV)"/>
            </g>
            <mask id="bX" fill="#fff">
                <use xlink:href="#bW"/>
            </mask>
            <path fill="#606060" d="M173.958 63.276h92.734v-5.285h-92.734z" mask="url(#bX)"/>
            <path fill="#606060" d="M203.02 57.992h-4.373a.912.912 0 0 1-.913-.912V34.133c0-.505.409-.913.913-.913h4.374c.504 0 .913.409.913.913V57.08a.912.912 0 0 1-.913.912" mask="url(#bX)"/>
            <path fill="#AFAFAF" d="M209.22 57.992h-4.374a.913.913 0 0 1-.913-.912V32.18c0-.504.41-.912.913-.912h4.374c.504 0 .913.408.913.912V57.08a.912.912 0 0 1-.913.912" mask="url(#bX)"/>
            <path fill="#606060" d="M215.999 57.992h-4.954a.913.913 0 0 1-.913-.912V34.133c0-.505.41-.913.913-.913H216c.504 0 .912.409.912.913V57.08a.912.912 0 0 1-.912.912" mask="url(#bX)"/>
            <path fill="#AFAFAF" d="M222.776 57.992h-4.952a.912.912 0 0 1-.912-.912V34.133c0-.505.408-.913.912-.913h4.952c.505 0 .913.409.913.913V57.08a.912.912 0 0 1-.913.912" mask="url(#bX)"/>
            <path fill="#606060" d="M229.555 57.992h-4.952a.912.912 0 0 1-.913-.912V31.805c0-.505.409-.913.913-.913h4.952c.505 0 .913.409.913.913V57.08a.912.912 0 0 1-.913.912" mask="url(#bX)"/>
            <path fill="#AFAFAF" d="M266.837 54.225l-3.503 3.5a.913.913 0 0 1-1.29 0l-17.89-17.873a.91.91 0 0 1 0-1.29l3.503-3.498a.91.91 0 0 1 1.29 0l17.89 17.871a.913.913 0 0 1 0 1.29M233.483 57.992h-2.1a.913.913 0 0 1-.915-.912V31.805c0-.505.41-.913.915-.913h2.1a.91.91 0 0 1 .912.913V57.08a.91.91 0 0 1-.912.912" mask="url(#bX)"/>
            <path fill="#AFAFAF" d="M237.41 57.992h-2.1a.913.913 0 0 1-.915-.912V30.93c0-.503.41-.91.914-.91h2.101c.505 0 .913.407.913.91v26.15a.912.912 0 0 1-.913.912" mask="url(#bX)"/>
            <path fill="#606060" d="M252.645 56.693l-1.82 1.05a.913.913 0 0 1-1.246-.333l-11.13-19.259a.913.913 0 0 1 .334-1.246l1.82-1.05a.914.914 0 0 1 1.248.334l11.129 19.257a.912.912 0 0 1-.335 1.247" mask="url(#bX)"/>
            <path stroke="#FFF" stroke-width=".5" d="M247.349 227.618c-1.63-.577-2.434-1.723-2.434-1.723" mask="url(#bX)"/>
        </g>
        <path fill="#606060" d="M82.149 258.788h31.857c1.102 0 1.968.942 1.877 2.038l-2.688 32.154a1.883 1.883 0 0 1-1.878 1.725h-26.48c-.98 0-1.796-.75-1.877-1.725l-2.688-32.154a1.882 1.882 0 0 1 1.877-2.038"/>
        <path fill="#F7F7F7" d="M95.35 258.788c0-13.941-72.32-27.224-62.318-42.098 4.627-6.883 60.334-23.72 65.044 42.098H95.35z"/>
        <g transform="translate(32.042 208.502)">
            <mask id="bZ" fill="#fff">
                <use xlink:href="#bY"/>
            </mask>
            <path fill="#B7B7B7" d="M63.308 50.286C63.308 36.345-7.82-5.5 6.403-16.418c11.778-9.04 54.921.885 59.632 66.704h-2.727z" mask="url(#bZ)"/>
        </g>
        <path stroke="#606060" stroke-width=".5" d="M48.487 219.708c21.324 0 41.283 17.088 46.986 37.152"/>
        <path fill="#F7F7F7" d="M95.35 258.788c0-13.941-60.65-67.965-45.128-76.941 10.993-6.359 43.144 11.122 47.854 76.94H95.35zM98.077 258.788c0-13.941 10.602-34.238 28.63-24.605 11.25 6.01-23.836-1.804-25.903 24.605h-2.727z"/>
        <g transform="translate(96.606 231.002)">
            <mask id="cb" fill="#fff">
                <use xlink:href="#ca"/>
            </mask>
            <path fill="#B7B7B7" d="M1.471 27.786C-8.57-26.036 34.704-24.446 49.202-13.9 64.08-3.075 13.911-8.387 4.198 27.786H1.47z" mask="url(#cb)"/>
        </g>
        <g>
            <path fill="#F7F7F7" d="M98.077 258.788c-10.042-53.822 20.422-80.63 34.92-70.082 14.877 10.823-22.48 33.91-32.193 70.082h-2.727z"/>
            <path fill="#B7B7B7" d="M105.085 201.585c-7.423 12.271-11.767 31.698-7.007 57.204h2.726c.124-.46.27-.908.403-1.362-3.874-22.074-1.355-41.504 3.878-55.842"/>
            <path stroke="#606060" stroke-width=".5" d="M96.581 258.788c-7.405-37.994-31.357-62.08-36.813-69.557M124.236 196.378c-6.943 9.249-24.796 32.467-24.796 62.409"/>
            <path fill="#9C9B9B" d="M92.381 292.98l-2.687-32.154a1.882 1.882 0 0 1 1.876-2.037H82.15c-1.103 0-1.969.94-1.877 2.037l2.687 32.154a1.883 1.883 0 0 0 1.879 1.725h9.422c-.98 0-1.796-.75-1.879-1.725"/>
        </g>
        <g>
            <g transform="translate(80.09 258.002)">
                <mask id="cd" fill="#fff">
                    <use xlink:href="#cc"/>
                </mask>
                <path stroke="#FFF" stroke-linecap="round" stroke-width=".5" d="M34.865 13.931l-5.114-5.109-5.237 5.23-5.488-5.483-5.557 5.551-5.5-5.493-5.612 5.609-2.182-2.18" mask="url(#cd)"/>
            </g>
            <g transform="translate(80.09 258.002)">
                <mask id="cf" fill="#fff">
                    <use xlink:href="#ce"/>
                </mask>
                <path stroke="#FFF" stroke-linecap="round" stroke-width=".5" d="M34.865 16.931l-5.114-5.109-5.237 5.23-5.488-5.483-5.557 5.551-5.5-5.493-5.612 5.609-2.182-2.18" mask="url(#cf)"/>
            </g>
            <g transform="translate(80.09 258.002)">
                <mask id="ch" fill="#fff">
                    <use xlink:href="#cg"/>
                </mask>
                <path stroke="#FFF" stroke-linecap="round" stroke-width=".5" d="M34.865 30.431l-5.114-5.109-5.237 5.23-5.488-5.483-5.557 5.551-5.5-5.493-5.612 5.609-2.182-2.18" mask="url(#ch)"/>
            </g>
            <g transform="translate(80.09 258.002)">
                <mask id="cj" fill="#fff">
                    <use xlink:href="#ci"/>
                </mask>
                <path stroke="#FFF" stroke-linecap="round" stroke-width=".5" d="M34.865 33.431l-5.114-5.109-5.237 5.23-5.488-5.483-5.557 5.551-5.5-5.493-5.612 5.609-2.182-2.18" mask="url(#cj)"/>
            </g>
        </g>
    </g>
</svg>
