<svg xmlns="http://www.w3.org/2000/svg" xmlns:xlink="http://www.w3.org/1999/xlink" width="361" height="197" viewBox="0 0 361 197">
    <defs>
        <path id="a" d="M.667.375h310.268V1H.667z"/>
        <path id="c" d="M0 197h360.981V.738H0z"/>
        <path id="e" d="M0 .738h298.385v196.137H0z"/>
        <path id="g" d="M210.751.738c8.568.02 18.108.994 28.848 3.171 65.366 13.25 79.652 94.945 25.423 192.966H11.165c-18.864-36.284-28.038-101.043 93.597-143.9 35.733-12.59 50.53-52.11 105.46-52.237h.53z"/>
        <path id="i" d="M210.751.738c8.568.02 18.108.994 28.848 3.171 65.366 13.25 79.652 94.945 25.423 192.966H11.165c-18.864-36.284-28.038-101.043 93.597-143.9 35.733-12.59 50.53-52.11 105.46-52.237h.53z"/>
        <path id="k" d="M210.751.738c8.568.02 18.108.994 28.848 3.171 65.366 13.25 79.652 94.945 25.423 192.966H11.165c-18.864-36.284-28.038-101.043 93.597-143.9 35.733-12.59 50.53-52.11 105.46-52.237h.53"/>
        <path id="m" d="M210.751.738c8.568.02 18.108.994 28.848 3.171 65.366 13.25 79.652 94.945 25.423 192.966H11.165c-18.864-36.284-28.038-101.043 93.597-143.9 35.733-12.59 50.53-52.11 105.46-52.237h.53z"/>
        <path id="o" d="M210.751.738c8.568.02 18.108.994 28.848 3.171 65.366 13.25 79.652 94.945 25.423 192.966H11.165c-18.864-36.284-28.038-101.043 93.597-143.9 35.733-12.59 50.53-52.11 105.46-52.237h.53"/>
        <path id="q" d="M210.751.738c8.568.02 18.108.994 28.848 3.171 65.366 13.25 79.652 94.945 25.423 192.966H11.165c-18.864-36.284-28.038-101.043 93.597-143.9 35.733-12.59 50.53-52.11 105.46-52.237h.53"/>
        <path id="s" d="M210.751.738c8.568.02 18.108.994 28.848 3.171 65.366 13.25 79.652 94.945 25.423 192.966H11.165c-18.864-36.284-28.038-101.043 93.597-143.9 35.733-12.59 50.53-52.11 105.46-52.237h.53z"/>
        <path id="u" d="M210.751.738c8.568.02 18.108.994 28.848 3.171 65.366 13.25 79.652 94.945 25.423 192.966H11.165c-18.864-36.284-28.038-101.043 93.597-143.9 35.733-12.59 50.53-52.11 105.46-52.237h.53"/>
        <path id="w" d="M210.751.738c8.568.02 18.108.994 28.848 3.171 65.366 13.25 79.652 94.945 25.423 192.966H11.165c-18.864-36.284-28.038-101.043 93.597-143.9 35.733-12.59 50.53-52.11 105.46-52.237h.53"/>
    </defs>
    <g fill="none" fill-rule="evenodd" opacity=".7" style="mix-blend-mode:multiply">
        <g transform="translate(0 -.738)">
            <path fill="#FFF" d="M107.711 196.75c-2.739 0-4.678-.192-4.678-2.678v-28.558h34.594v28.558c0 2.486-1.939 2.678-4.678 2.678h-25.238z"/>
            <path fill="#313D56" d="M137.752 165.389h-34.844v28.683c0 2.653 2.15 2.803 4.803 2.803h25.238c2.653 0 4.803-.15 4.803-2.803v-28.683zm-.25.25v28.433c0 2.376-1.803 2.553-4.553 2.553H107.71c-2.75 0-4.553-.177-4.553-2.553v-28.433h34.344z"/>
            <path fill="#FFF" d="M26.381 165.264a4.683 4.683 0 0 1-4.678-4.678V58.32a4.683 4.683 0 0 1 4.678-4.68H214.28a4.684 4.684 0 0 1 4.678 4.68v102.265a4.684 4.684 0 0 1-4.678 4.678H26.381z"/>
            <path fill="#313D56" d="M214.28 53.517H26.38a4.803 4.803 0 0 0-4.803 4.803v102.265a4.803 4.803 0 0 0 4.803 4.804H214.28a4.804 4.804 0 0 0 4.803-4.804V58.32a4.804 4.804 0 0 0-4.803-4.803m0 .25a4.558 4.558 0 0 1 4.553 4.553v102.265a4.56 4.56 0 0 1-4.553 4.554H26.381a4.558 4.558 0 0 1-4.553-4.554V58.32a4.558 4.558 0 0 1 4.553-4.553H214.28"/>
            <path fill="#FFF" d="M91.966 196.75v-.135a4.684 4.684 0 0 1 4.678-4.678h47.373a4.684 4.684 0 0 1 4.678 4.678v.135h-56.73z"/>
            <path fill="#313D56" d="M144.016 191.812H96.643a4.803 4.803 0 0 0-4.803 4.803v.26h56.98v-.26a4.803 4.803 0 0 0-4.804-4.803m0 .25a4.558 4.558 0 0 1 4.553 4.553v.01H92.09v-.01a4.558 4.558 0 0 1 4.553-4.553h47.373"/>
            <path fill="#FFF" d="M29.62 160.301a3.262 3.262 0 0 1-3.258-3.259V61.863a3.262 3.262 0 0 1 3.258-3.259h181.42a3.263 3.263 0 0 1 3.259 3.26v95.178a3.263 3.263 0 0 1-3.26 3.26H29.62z"/>
            <path fill="#313D56" d="M211.04 58.48H29.62a3.383 3.383 0 0 0-3.383 3.384v95.179a3.383 3.383 0 0 0 3.383 3.384h181.42a3.384 3.384 0 0 0 3.384-3.384v-95.18a3.384 3.384 0 0 0-3.384-3.383m0 .25a3.138 3.138 0 0 1 3.134 3.134v95.179a3.138 3.138 0 0 1-3.134 3.134H29.62a3.137 3.137 0 0 1-3.133-3.134v-95.18a3.137 3.137 0 0 1 3.133-3.133h181.42"/>
            <g transform="translate(50 196)">
                <mask id="b" fill="#fff">
                    <use xlink:href="#a"/>
                </mask>
                <path fill="#FFF" d="M310.935.875H.667" mask="url(#b)"/>
                <path stroke="#313D56" stroke-width=".25" d="M310.935.875H.667" mask="url(#b)"/>
            </g>
            <path fill="#FFF" d="M257.598 196.75a.687.687 0 0 1-.562-.274c-6.759-9.154-8.286-32.177-8.523-36.699a.651.651 0 0 1 .18-.49.676.676 0 0 1 .496-.21h33.766c.191 0 .368.074.497.21a.654.654 0 0 1 .18.49c-.237 4.521-1.762 27.541-8.523 36.7a.687.687 0 0 1-.563.273h-16.948z"/>
            <path fill="#313D56" d="M282.955 158.95H249.19a.794.794 0 0 0-.8.833c.243 4.657 1.774 27.593 8.546 36.768.155.21.402.324.663.324h16.948a.816.816 0 0 0 .664-.324c6.772-9.175 8.303-32.11 8.547-36.768a.794.794 0 0 0-.802-.833m0 .25c.157 0 .301.062.406.173a.529.529 0 0 1 .146.397c-.237 4.515-1.76 27.505-8.498 36.632a.568.568 0 0 1-.463.223h-16.948a.567.567 0 0 1-.462-.223c-6.738-9.127-8.262-32.117-8.499-36.632a.529.529 0 0 1 .146-.397.556.556 0 0 1 .406-.173h33.766"/>
            <path fill="#FFF" d="M249.83 167.221c-3.14-3.139-9.92-2.477-7.935 6.234 1.986 8.712 11.102 11.97 11.102 11.97"/>
            <path stroke="#313D56" stroke-width=".25" d="M249.83 167.221c-3.14-3.139-9.92-2.477-7.935 6.234 1.986 8.712 11.102 11.97 11.102 11.97"/>
            <mask id="d" fill="#fff">
                <use xlink:href="#c"/>
            </mask>
            <path fill="#FFF" d="M42.582 75.834h21.6V68.3h-21.6z" mask="url(#d)"/>
            <path fill="#313D56" d="M42.457 75.959h21.85v-7.784h-21.85v7.784zm.25-.25h21.35v-7.284h-21.35v7.284z" mask="url(#d)"/>
            <path fill="#FFF" d="M42.582 151.274h21.6V75.836h-21.6z" mask="url(#d)"/>
            <path fill="#313D56" d="M42.457 151.399h21.85V75.711h-21.85v75.688zm.25-.25h21.35V75.961h-21.35v75.188z" mask="url(#d)"/>
            <g mask="url(#d)">
                <path fill="#FFF" d="M45.11 71.949h9.743"/>
                <path stroke="#313D56" stroke-width=".25" d="M45.11 71.949h9.743"/>
            </g>
            <path fill="#FFF" d="M64.171 75.103h21.862V68.3H64.171z" mask="url(#d)"/>
            <path fill="#313D56" d="M64.046 75.228h22.112v-7.053H64.046v7.053zm.25-.25h21.612v-6.553H64.296v6.553z" mask="url(#d)"/>
            <path fill="#FFF" d="M64.432 151.274h21.601V75.353H64.432z" mask="url(#d)"/>
            <path fill="#313D56" d="M64.307 151.399h21.851V75.228H64.307v76.171zm.25-.25h21.351V75.478H64.557v75.671z" mask="url(#d)"/>
            <g mask="url(#d)">
                <path fill="#FFF" d="M66.96 71.949h12.743"/>
                <path stroke="#313D56" stroke-width=".25" d="M66.96 71.949h12.743"/>
            </g>
            <path fill="#FFF" d="M86.283 75.103h21.6v-6.307h-21.6z" mask="url(#d)"/>
            <path fill="#313D56" d="M86.158 75.228h21.85v-6.557h-21.85v6.557zm.25-.25h21.35v-6.057h-21.35v6.057z" mask="url(#d)"/>
            <path fill="#FFF" d="M86.283 151.274h21.6V75.353h-21.6z" mask="url(#d)"/>
            <path fill="#313D56" d="M86.158 151.399h21.85V75.228h-21.85v76.171zm.25-.25h21.35V75.478h-21.35v75.671z" mask="url(#d)"/>
            <g mask="url(#d)">
                <path fill="#FFF" d="M88.81 71.949h7.743"/>
                <path stroke="#313D56" stroke-width=".25" d="M88.81 71.949h7.743"/>
            </g>
            <path fill="#FFF" d="M108.133 75.103h21.6v-6.307h-21.6z" mask="url(#d)"/>
            <path fill="#313D56" d="M108.008 75.228h21.85v-6.557h-21.85v6.557zm.25-.25h21.35v-6.057h-21.35v6.057z" mask="url(#d)"/>
            <path fill="#FFF" d="M108.133 151.274h21.6V75.353h-21.6z" mask="url(#d)"/>
            <path fill="#313D56" d="M108.008 151.399h21.85V75.228h-21.85v76.171zm.25-.25h21.35V75.478h-21.35v75.671z" mask="url(#d)"/>
            <g mask="url(#d)">
                <path fill="#FFF" d="M110.66 71.949h7.744"/>
                <path stroke="#313D56" stroke-width=".25" d="M110.66 71.949h7.744"/>
            </g>
            <path fill="#FFF" d="M129.983 75.103h21.6v-6.307h-21.6z" mask="url(#d)"/>
            <path fill="#313D56" d="M129.858 75.228h21.85v-6.557h-21.85v6.557zm.25-.25h21.35v-6.057h-21.35v6.057z" mask="url(#d)"/>
            <path fill="#FFF" d="M129.983 151.274h21.6V75.353h-21.6z" mask="url(#d)"/>
            <path fill="#313D56" d="M129.858 151.399h21.85V75.228h-21.85v76.171zm.25-.25h21.35V75.478h-21.35v75.671z" mask="url(#d)"/>
            <g mask="url(#d)">
                <path fill="#FFF" d="M132.51 71.949h10.744"/>
                <path stroke="#313D56" stroke-width=".25" d="M132.51 71.949h10.744"/>
            </g>
            <path fill="#FFF" d="M151.833 75.103h21.6v-6.307h-21.6z" mask="url(#d)"/>
            <path fill="#313D56" d="M151.708 75.228h21.85v-6.557h-21.85v6.557zm.25-.25h21.35v-6.057h-21.35v6.057z" mask="url(#d)"/>
            <path fill="#FFF" d="M151.833 151.274h21.6V75.353h-21.6z" mask="url(#d)"/>
            <path fill="#313D56" d="M151.708 151.399h21.85V75.228h-21.85v76.171zm.25-.25h21.35V75.478h-21.35v75.671z" mask="url(#d)"/>
            <g mask="url(#d)">
                <path fill="#FFF" d="M154.36 71.949h8.744"/>
                <path stroke="#313D56" stroke-width=".25" d="M154.36 71.949h8.744"/>
            </g>
            <path fill="#FFF" d="M173.683 75.103h21.6v-6.307h-21.6z" mask="url(#d)"/>
            <path fill="#313D56" d="M173.558 75.228h21.85v-6.557h-21.85v6.557zm.25-.25h21.35v-6.057h-21.35v6.057z" mask="url(#d)"/>
            <path fill="#FFF" d="M173.683 151.274h21.6V75.353h-21.6z" mask="url(#d)"/>
            <path fill="#313D56" d="M173.558 151.399h21.85V75.228h-21.85v76.171zm.25-.25h21.35V75.478h-21.35v75.671z" mask="url(#d)"/>
            <g mask="url(#d)">
                <path fill="#FFF" d="M176.21 71.949h10.744"/>
                <path stroke="#313D56" stroke-width=".25" d="M176.21 71.949h10.744"/>
            </g>
            <g mask="url(#d)">
                <path fill="#FFF" d="M154.86 80.965h7.744"/>
                <path stroke="#313D56" stroke-width=".25" d="M154.86 80.965h7.744"/>
            </g>
            <g mask="url(#d)">
                <path fill="#FFF" d="M154.86 100.965h7.744"/>
                <path stroke="#313D56" stroke-width=".25" d="M154.86 100.965h7.744"/>
            </g>
            <g mask="url(#d)">
                <path fill="#FFF" d="M154.86 120.965h7.744"/>
                <path stroke="#313D56" stroke-width=".25" d="M154.86 120.965h7.744"/>
            </g>
            <g mask="url(#d)">
                <path fill="#FFF" d="M154.86 130.964h7.744"/>
                <path stroke="#313D56" stroke-width=".25" d="M154.86 130.964h7.744"/>
            </g>
            <g mask="url(#d)">
                <path fill="#FFF" d="M134.01 100.965h7.744"/>
                <path stroke="#313D56" stroke-width=".25" d="M134.01 100.965h7.744"/>
            </g>
            <g mask="url(#d)">
                <path fill="#FFF" d="M134.01 120.965h7.744"/>
                <path stroke="#313D56" stroke-width=".25" d="M134.01 120.965h7.744"/>
            </g>
            <g mask="url(#d)">
                <path fill="#FFF" d="M134.01 130.964h7.744"/>
                <path stroke="#313D56" stroke-width=".25" d="M134.01 130.964h7.744"/>
            </g>
            <g mask="url(#d)">
                <path fill="#FFF" d="M110.66 80.965h7.744"/>
                <path stroke="#313D56" stroke-width=".25" d="M110.66 80.965h7.744"/>
            </g>
            <g mask="url(#d)">
                <path fill="#FFF" d="M110.66 90.965h7.744"/>
                <path stroke="#313D56" stroke-width=".25" d="M110.66 90.965h7.744"/>
            </g>
            <g mask="url(#d)">
                <path fill="#FFF" d="M110.66 100.965h7.744"/>
                <path stroke="#313D56" stroke-width=".25" d="M110.66 100.965h7.744"/>
            </g>
            <g mask="url(#d)">
                <path fill="#FFF" d="M110.66 110.965h7.744"/>
                <path stroke="#313D56" stroke-width=".25" d="M110.66 110.965h7.744"/>
            </g>
            <g mask="url(#d)">
                <path fill="#FFF" d="M110.66 120.965h7.744"/>
                <path stroke="#313D56" stroke-width=".25" d="M110.66 120.965h7.744"/>
            </g>
            <g mask="url(#d)">
                <path fill="#FFF" d="M110.66 130.964h7.744"/>
                <path stroke="#313D56" stroke-width=".25" d="M110.66 130.964h7.744"/>
            </g>
            <g mask="url(#d)">
                <path fill="#FFF" d="M176.21 80.965h7.744"/>
                <path stroke="#313D56" stroke-width=".25" d="M176.21 80.965h7.744"/>
            </g>
            <g mask="url(#d)">
                <path fill="#FFF" d="M176.21 90.965h7.744"/>
                <path stroke="#313D56" stroke-width=".25" d="M176.21 90.965h7.744"/>
            </g>
            <g mask="url(#d)">
                <path fill="#FFF" d="M176.21 120.965h7.744"/>
                <path stroke="#313D56" stroke-width=".25" d="M176.21 120.965h7.744"/>
            </g>
            <g mask="url(#d)">
                <path fill="#FFF" d="M89.34 80.965h7.742"/>
                <path stroke="#313D56" stroke-width=".25" d="M89.34 80.965h7.742"/>
            </g>
            <g mask="url(#d)">
                <path fill="#FFF" d="M89.34 100.965h7.742"/>
                <path stroke="#313D56" stroke-width=".25" d="M89.34 100.965h7.742"/>
            </g>
            <g mask="url(#d)">
                <path fill="#FFF" d="M89.34 110.965h7.742"/>
                <path stroke="#313D56" stroke-width=".25" d="M89.34 110.965h7.742"/>
            </g>
            <g mask="url(#d)">
                <path fill="#FFF" d="M89.34 120.965h7.742"/>
                <path stroke="#313D56" stroke-width=".25" d="M89.34 120.965h7.742"/>
            </g>
            <g mask="url(#d)">
                <path fill="#FFF" d="M89.34 130.964h7.742"/>
                <path stroke="#313D56" stroke-width=".25" d="M89.34 130.964h7.742"/>
            </g>
            <g mask="url(#d)">
                <path fill="#FFF" d="M46.11 80.965h7.743"/>
                <path stroke="#313D56" stroke-linecap="round" stroke-width=".725" d="M46.11 80.965h7.743"/>
            </g>
            <g mask="url(#d)">
                <path fill="#FFF" d="M46.11 90.965h7.743"/>
                <path stroke="#313D56" stroke-width=".25" d="M46.11 90.965h7.743"/>
            </g>
            <g mask="url(#d)">
                <path fill="#FFF" d="M46.11 110.965h7.743"/>
                <path stroke="#313D56" stroke-width=".25" d="M46.11 110.965h7.743"/>
            </g>
            <g mask="url(#d)">
                <path fill="#FFF" d="M46.11 130.964h7.743"/>
                <path stroke="#313D56" stroke-width=".25" d="M46.11 130.964h7.743"/>
            </g>
        </g>
        <g transform="translate(0 -.738)">
            <mask id="f" fill="#fff">
                <use xlink:href="#e"/>
            </mask>
            <path fill="#E5E5E5" d="M11.165 196.875C-7.7 160.591-16.873 95.832 104.762 52.975c41.395-14.585 54.694-65.31 134.837-49.066 65.366 13.25 79.652 94.945 25.423 192.966H11.165z" mask="url(#f)"/>
        </g>
        <g transform="translate(0 -.738)">
            <mask id="h" fill="#fff">
                <use xlink:href="#g"/>
            </mask>
            <use fill="#EEEFF0" xlink:href="#g"/>
            <g mask="url(#h)">
                <mask id="j" fill="#fff">
                    <use xlink:href="#i"/>
                </mask>
                <path fill="#6F6F6E" d="M137.798 165.389h-34.844v28.683c0 2.653 2.15 2.803 4.803 2.803h25.238c2.653 0 4.803-.15 4.803-2.803v-28.683z" mask="url(#j)"/>
            </g>
            <g mask="url(#h)">
                <mask id="l" fill="#fff">
                    <use xlink:href="#k"/>
                </mask>
                <path fill="#9C9B9B" d="M214.325 165.389H26.427a4.803 4.803 0 0 1-4.803-4.803V58.32a4.803 4.803 0 0 1 4.803-4.804h187.898a4.804 4.804 0 0 1 4.803 4.804v102.265a4.803 4.803 0 0 1-4.803 4.803" mask="url(#l)"/>
            </g>
            <g mask="url(#h)">
                <mask id="n" fill="#fff">
                    <use xlink:href="#m"/>
                </mask>
                <path fill="#9C9B9B" d="M91.886 196.875h56.98v-.26a4.803 4.803 0 0 0-4.804-4.803H96.69a4.803 4.803 0 0 0-4.802 4.803v.26z" mask="url(#n)"/>
            </g>
            <g mask="url(#h)">
                <mask id="p" fill="#fff">
                    <use xlink:href="#o"/>
                </mask>
                <path fill="#E5E5E5" d="M211.086 160.426H29.666a3.383 3.383 0 0 1-3.383-3.384V61.863a3.383 3.383 0 0 1 3.383-3.384h181.42a3.384 3.384 0 0 1 3.384 3.384v95.18a3.384 3.384 0 0 1-3.384 3.383" mask="url(#p)"/>
            </g>
            <g mask="url(#h)">
                <mask id="r" fill="#fff">
                    <use xlink:href="#q"/>
                </mask>
                <path stroke="#313D56" stroke-width=".25" d="M360.98 196.875H50.714" mask="url(#r)"/>
            </g>
            <g mask="url(#h)">
                <mask id="t" fill="#fff">
                    <use xlink:href="#s"/>
                </mask>
                <path fill="#9C9B9B" d="M269.063 158.95h-19.827a.794.794 0 0 0-.802.834c.245 4.656 1.775 27.593 8.547 36.767.156.21.402.324.664.324h16.948a.814.814 0 0 0 .663-.324c6.772-9.174 8.303-32.111 8.548-36.767a.795.795 0 0 0-.803-.833h-13.938z" mask="url(#t)"/>
            </g>
            <g mask="url(#h)">
                <mask id="v" fill="#fff">
                    <use xlink:href="#u"/>
                </mask>
                <path fill="#6F6F6E" d="M283.001 158.95h-9.126c.46 0 .826.375.802.834-.245 4.656.66 29.94-2.496 36.767-.109.237-.402.324-.663.324h3.074a.816.816 0 0 0 .664-.324c6.772-9.174 8.303-32.111 8.547-36.767a.794.794 0 0 0-.802-.833" mask="url(#v)"/>
            </g>
            <g mask="url(#h)">
                <mask id="x" fill="#fff">
                    <use xlink:href="#w"/>
                </mask>
                <path stroke="#9C9B9B" stroke-linecap="round" stroke-width="2.754" d="M249.875 167.221c-3.139-3.139-9.919-2.477-7.934 6.234 1.986 8.712 11.102 11.97 11.102 11.97" mask="url(#x)"/>
            </g>
            <path fill="#F7F7F7" d="M42.502 75.228h21.851v-6.557H42.502z" mask="url(#h)"/>
            <path stroke="#F7F7F7" d="M42.502 75.228h21.851v-6.557H42.502z" mask="url(#h)"/>
            <path stroke="#F7F7F7" stroke-width=".694" d="M42.502 151.399h21.851V75.228H42.502z" mask="url(#h)"/>
            <path stroke="#313D56" stroke-linecap="round" stroke-width=".694" d="M45.156 71.949H54.9" mask="url(#h)"/>
            <path fill="#F7F7F7" d="M64.353 75.215h21.85v-6.544h-21.85z" mask="url(#h)"/>
            <path stroke="#F7F7F7" d="M64.353 75.215h21.85v-6.544h-21.85z" mask="url(#h)"/>
            <g mask="url(#h)">
                <path fill="#F7F7F7" d="M67.006 71.942H79.75"/>
                <path stroke="#6F6F6E" stroke-linecap="round" d="M67.006 71.942H79.75"/>
            </g>
            <path fill="#F7F7F7" d="M64.353 151.239h21.85V75.215h-21.85z" mask="url(#h)"/>
            <path stroke="#F7F7F7" d="M64.353 151.239h21.85V75.215h-21.85z" mask="url(#h)"/>
            <path fill="#F7F7F7" d="M86.204 75.228h21.85v-6.557h-21.85z" mask="url(#h)"/>
            <path stroke="#F7F7F7" d="M86.204 75.228h21.85v-6.557h-21.85z" mask="url(#h)"/>
            <path stroke="#F7F7F7" stroke-width=".694" d="M86.204 151.399h21.85V75.228h-21.85z" mask="url(#h)"/>
            <path stroke="#313D56" stroke-linecap="round" stroke-width=".694" d="M88.856 71.949H96.6" mask="url(#h)"/>
            <path fill="#F7F7F7" d="M108.054 75.228h21.85v-6.557h-21.85z" mask="url(#h)"/>
            <path stroke="#F7F7F7" d="M108.054 75.228h21.85v-6.557h-21.85z" mask="url(#h)"/>
            <path stroke="#F7F7F7" stroke-width=".694" d="M108.054 151.399h21.85V75.228h-21.85z" mask="url(#h)"/>
            <path stroke="#313D56" stroke-linecap="round" stroke-width=".694" d="M110.706 71.949h7.743" mask="url(#h)"/>
            <path fill="#F7F7F7" d="M129.904 75.228h21.85v-6.557h-21.85z" mask="url(#h)"/>
            <path stroke="#F7F7F7" d="M129.904 75.228h21.85v-6.557h-21.85z" mask="url(#h)"/>
            <path stroke="#F7F7F7" stroke-width=".694" d="M129.904 151.399h21.85V75.228h-21.85z" mask="url(#h)"/>
            <path stroke="#313D56" stroke-linecap="round" stroke-width=".694" d="M132.556 71.949H143.3" mask="url(#h)"/>
            <path fill="#F7F7F7" d="M151.754 75.228h21.85v-6.557h-21.85z" mask="url(#h)"/>
            <path stroke="#F7F7F7" d="M151.754 75.228h21.85v-6.557h-21.85z" mask="url(#h)"/>
            <path stroke="#F7F7F7" stroke-width=".694" d="M151.754 151.399h21.85V75.228h-21.85z" mask="url(#h)"/>
            <path stroke="#313D56" stroke-linecap="round" stroke-width=".694" d="M154.407 71.949h8.743" mask="url(#h)"/>
            <path fill="#F7F7F7" d="M173.604 75.228h21.85v-6.557h-21.85z" mask="url(#h)"/>
            <path stroke="#F7F7F7" d="M173.604 75.228h21.85v-6.557h-21.85z" mask="url(#h)"/>
            <path stroke="#F7F7F7" stroke-width=".694" d="M173.604 151.399h21.85V75.228h-21.85z" mask="url(#h)"/>
            <path stroke="#313D56" stroke-linecap="round" stroke-width=".694" d="M176.257 71.949H187" mask="url(#h)"/>
            <path stroke="#F7F7F7" stroke-linecap="round" stroke-width=".694" d="M154.907 80.965h7.743M154.907 100.965h7.743M154.907 120.965h7.743M154.907 130.964h7.743M134.056 100.965h7.743M134.056 120.965h7.743M134.056 130.964h7.743M110.706 80.965h7.743M110.706 90.965h7.743M110.706 100.965h7.743M110.706 110.965h7.743M110.706 120.965h7.743M110.706 130.964h7.743M176.257 80.965H184M176.257 90.965H184M176.257 120.965H184M89.385 80.965h7.743M89.385 100.965h7.743M89.385 110.965h7.743M89.385 120.965h7.743M89.385 130.964h7.743M46.156 80.965H53.9M46.156 90.965H53.9M46.156 110.965H53.9M46.156 130.964H53.9" mask="url(#h)"/>
        </g>
        <path fill="#F2F2F2" d="M249.236 158.213c8.79-8.791 27.718-16.094 2.434-35.185-12.791-9.658-6.846-20.158 4.793-26.53 1.23-.672 2.416 1.028 1.345 1.935-6.147 5.21-9.882 13.02 4.43 21.794 25.762 15.792 18.716 37.986 18.716 37.986h-31.718z"/>
        <path fill="#F2F2F2" d="M257.466 131.302c-.455.628-1.856.39-3.131-.532-1.275-.922-1.94-2.178-1.486-2.806.454-.628 1.856-.39 3.13.531 1.276.922 1.94 2.18 1.487 2.807M253.145 126.446c-.208.287-.847.178-1.429-.243-.58-.42-.884-.993-.677-1.28.207-.287.846-.178 1.428.242.582.421.885.994.678 1.281"/>
        <path fill="#E5E5E5" d="M261.385 150.11c1.31-1.475 3.743-5.093 5.984-3.444 2.24 1.648-4.221 9.128-7.038 8.278-2.818-.85-.596-2.975 1.054-4.834M268.25 148.612c.327-.802.808-2.656 1.977-2.3 1.17.356-.418 4.398-1.709 4.457-1.29.058-.68-1.146-.268-2.157"/>
        <path fill="#F2F2F2" d="M256.156 103.74c0-1.275.568-2.482 1.548-3.3 2.35-1.961 6.018-4.805 6.612-3.855.757 1.21-8.16 9.138-8.16 7.156"/>
    </g>
</svg>
