<svg xmlns="http://www.w3.org/2000/svg" width="25" height="22" viewBox="0 0 25 22">
    <g fill="none" fill-rule="evenodd">
        <path fill="#353B50" d="M20.243 9.456c-1.028 0-1.91-.366-2.642-1.099-.732-.732-1.098-1.613-1.098-2.641 0-1.029.366-1.91 1.098-2.642.733-.733 1.614-1.099 2.642-1.099 1.029 0 1.91.366 2.642 1.099.733.732 1.099 1.613 1.099 2.642 0 1.028-.366 1.909-1.099 2.641-.733.733-1.613 1.1-2.642 1.1zm0-5.237c-.405 0-.756.148-1.052.445a1.438 1.438 0 0 0-.444 1.052c0 .405.148.756.444 1.052.296.296.647.444 1.052.444s.756-.148 1.052-.444c.296-.296.444-.647.444-1.052 0-.406-.148-.756-.444-1.052a1.438 1.438 0 0 0-1.052-.445zm.561 6.734c1.091 0 2.019.381 2.782 1.145.764.764 1.146 1.691 1.146 2.782 0 .312-.11.577-.327.795a1.082 1.082 0 0 1-.795.327c-.312 0-.577-.109-.795-.327a1.082 1.082 0 0 1-.327-.795c0-.467-.164-.865-.491-1.192a1.623 1.623 0 0 0-1.193-.491h-1.122c-.156 0-.343.031-.561.093a7.592 7.592 0 0 0-1.637-1.683 3.874 3.874 0 0 1 2.198-.654h1.122z"/>
        <path fill="#21A68B" d="M17.812 14.085c.623.904.935 1.902.935 2.993v2.104c0 .623-.218 1.153-.655 1.59a2.164 2.164 0 0 1-1.59.654H3.037a2.164 2.164 0 0 1-1.59-.654 2.164 2.164 0 0 1-.654-1.59v-2.104c0-1.091.312-2.097.935-3.016.624-.92 1.489-1.559 2.595-1.917a5.443 5.443 0 0 1 3.343-.024c.686.219 1.38.328 2.081.328.701 0 1.41-.11 2.128-.328a5.443 5.443 0 0 1 3.343.024c1.106.358 1.971 1.005 2.595 1.94zm-1.31 5.097v-2.104c0-.842-.296-1.567-.888-2.174a3.06 3.06 0 0 0-2.15-.959 9.656 9.656 0 0 1-3.695.748 9.656 9.656 0 0 1-3.693-.748 3.06 3.06 0 0 0-2.151.959 3.007 3.007 0 0 0-.889 2.174v2.104h13.467zM9.77 10.953a5.152 5.152 0 0 1-2.619-.702 5.144 5.144 0 0 1-1.917-1.917 5.152 5.152 0 0 1-.701-2.618c0-.935.233-1.808.701-2.619A5.144 5.144 0 0 1 7.151 1.18 5.152 5.152 0 0 1 9.769.48c.936 0 1.808.234 2.619.701a5.144 5.144 0 0 1 1.917 1.917c.468.81.701 1.684.701 2.619 0 .935-.233 1.808-.701 2.618a5.144 5.144 0 0 1-1.917 1.917 5.152 5.152 0 0 1-2.619.702zm0-8.23c-.811 0-1.512.296-2.105.889-.592.592-.888 1.293-.888 2.104 0 .81.296 1.511.888 2.104.593.592 1.294.888 2.104.888s1.512-.296 2.105-.888c.592-.593.888-1.294.888-2.104s-.296-1.512-.888-2.104c-.593-.593-1.294-.889-2.105-.889z"/>
    </g>
</svg>
