<svg xmlns="http://www.w3.org/2000/svg" width="14" height="15" viewBox="0 0 14 15">
    <path fill="#353B50" fill-rule="evenodd" d="M8.75 2.063a3.8 3.8 0 0 0-1.969.533A4.013 4.013 0 0 0 5.346 4.03 3.8 3.8 0 0 0 4.812 6c0 .383.055.766.165 1.148l-3.665 3.665v2.624h2.625v-1.312H5.25v-1.312h.875l1.148-1.149c.474.182.967.274 1.477.274a3.8 3.8 0 0 0 1.969-.534 4.013 4.013 0 0 0 1.435-1.435A3.8 3.8 0 0 0 12.687 6a3.8 3.8 0 0 0-.533-1.969 4.013 4.013 0 0 0-1.435-1.435 3.8 3.8 0 0 0-1.969-.533zm0-1.313c.948 0 1.823.237 2.625.711a5.35 5.35 0 0 1 1.914 1.914C13.763 4.177 14 5.052 14 6s-.237 1.823-.711 2.625a5.35 5.35 0 0 1-1.914 1.914 5.067 5.067 0 0 1-2.625.711c-.365 0-.73-.036-1.094-.11l-1.094 1.094v.547a.633.633 0 0 1-.19.465.633.633 0 0 1-.466.191H5.25v.657a.633.633 0 0 1-.191.465.633.633 0 0 1-.465.191H.656a.633.633 0 0 1-.465-.191.633.633 0 0 1-.191-.465v-3.555c0-.182.064-.337.191-.465l3.364-3.363a5.067 5.067 0 0 1 .656-3.336 5.35 5.35 0 0 1 1.914-1.914A5.067 5.067 0 0 1 8.75.75zm0 3.938c0-.365.128-.675.383-.93s.565-.383.93-.383c.364 0 .674.128.93.383.254.255.382.565.382.93 0 .364-.128.674-.383.93a1.266 1.266 0 0 1-.93.382c-.364 0-.674-.128-.93-.383a1.266 1.266 0 0 1-.382-.93z"/>
</svg>
