<svg xmlns="http://www.w3.org/2000/svg" width="28" height="25" viewBox="0 0 28 25">
    <g fill="none" fill-rule="evenodd">
        <path fill="#353B50" d="M25.421.983c.624 0 1.153.218 1.59.654.436.437.654.966.654 1.59v13.466c0 .624-.218 1.153-.654 1.59a2.164 2.164 0 0 1-1.59.655H2.977a2.164 2.164 0 0 1-1.59-.655 2.164 2.164 0 0 1-.654-1.59V3.227c0-.624.218-1.153.655-1.59a2.164 2.164 0 0 1 1.59-.654H25.42zm-.28 15.71c.062 0 .124-.031.187-.093.062-.063.093-.125.093-.187V3.507c0-.062-.031-.124-.093-.187-.063-.062-.125-.093-.187-.093H3.258c-.062 0-.125.031-.187.093-.062.063-.094.125-.094.187v12.906c0 .062.032.124.094.187.062.062.125.093.187.093H25.14z"/>
        <path fill="#21A68B" d="M23.177 23.8c0 .312-.11.577-.328.795a1.082 1.082 0 0 1-.794.327H6.344c-.312 0-.577-.109-.795-.327a1.082 1.082 0 0 1-.327-.795c0-.311.109-.576.327-.795.218-.218.483-.327.795-.327h4.629l.842-2.618c.093-.25.28-.374.56-.374h3.648c.28 0 .467.124.56.374l.843 2.618h4.629c.311 0 .576.11.794.327.219.219.328.484.328.795z"/>
    </g>
</svg>
