<svg xmlns="http://www.w3.org/2000/svg" width="14" height="15" viewBox="0 0 14 15">
    <path fill="#353B50" fill-rule="evenodd" d="M13.918 13.574a.296.296 0 0 1 .082.219.4.4 0 0 1-.082.246l-.629.602a.34.34 0 0 1-.246.109.26.26 0 0 1-.219-.11l-3.336-3.308a.364.364 0 0 1-.082-.219v-.383c-.51.438-1.084.78-1.722 1.026a5.5 5.5 0 0 1-1.997.369 5.524 5.524 0 0 1-2.857-.766A5.746 5.746 0 0 1 .766 9.295 5.524 5.524 0 0 1 0 6.438c0-1.04.255-1.992.766-2.858A5.746 5.746 0 0 1 2.83 1.516 5.524 5.524 0 0 1 5.687.75c1.04 0 1.992.255 2.858.766a5.746 5.746 0 0 1 2.064 2.064c.51.866.766 1.818.766 2.858a5.5 5.5 0 0 1-.37 1.996 5.874 5.874 0 0 1-1.025 1.722h.383c.091 0 .164.028.219.082l3.336 3.336zm-8.23-2.761a4.28 4.28 0 0 0 2.187-.588 4.344 4.344 0 0 0 1.6-1.6 4.28 4.28 0 0 0 .587-2.187 4.28 4.28 0 0 0-.587-2.188 4.344 4.344 0 0 0-1.6-1.6 4.28 4.28 0 0 0-2.188-.587A4.28 4.28 0 0 0 3.5 2.65a4.344 4.344 0 0 0-1.6 1.6 4.28 4.28 0 0 0-.588 2.188c0 .783.196 1.513.588 2.187a4.344 4.344 0 0 0 1.6 1.6 4.28 4.28 0 0 0 2.187.588z"/>
</svg>
