<svg xmlns="http://www.w3.org/2000/svg" width="14" height="11" viewBox="0 0 14 11">
    <path fill="#353B50" fill-rule="evenodd" d="M4.922.5c.091 0 .168.032.232.096a.316.316 0 0 1 .096.232v.656a.316.316 0 0 1-.096.233.316.316 0 0 1-.232.096H2.625c-.365 0-.674.127-.93.382a1.266 1.266 0 0 0-.383.93v5.25c0 .365.128.674.383.93.256.255.565.383.93.383h2.297c.091 0 .168.031.232.095a.316.316 0 0 1 .096.233v.656a.316.316 0 0 1-.096.232.316.316 0 0 1-.232.096H2.625c-.73 0-1.349-.255-1.86-.766A2.531 2.531 0 0 1 0 8.375v-5.25c0-.73.255-1.349.766-1.86C1.276.756 1.896.5 2.625.5h2.297zm4.02.52v.027a.34.34 0 0 1 .245-.11c.092 0 .165.028.22.083l4.51 4.484A.4.4 0 0 1 14 5.75a.296.296 0 0 1-.082.219l-4.512 4.484a.26.26 0 0 1-.219.11.34.34 0 0 1-.246-.11l-.52-.52a.34.34 0 0 1-.109-.245.26.26 0 0 1 .11-.22l3.09-3.007H4.703a.316.316 0 0 1-.232-.096.316.316 0 0 1-.096-.232v-.766c0-.09.032-.168.096-.232a.316.316 0 0 1 .232-.096h6.809l-3.09-3.008a.26.26 0 0 1-.11-.218.34.34 0 0 1 .11-.247l.52-.546z"/>
</svg>
