<svg xmlns="http://www.w3.org/2000/svg" width="14" height="13" viewBox="0 0 14 13">
    <path fill="#353B50" fill-rule="evenodd" d="M13.562 1.719c.128 0 .233.04.315.123a.426.426 0 0 1 .123.314v.438a.426.426 0 0 1-.123.314.426.426 0 0 1-.315.123H7.875v.657a.426.426 0 0 1-.123.314.426.426 0 0 1-.315.123h-.875a.426.426 0 0 1-.314-.123.426.426 0 0 1-.123-.314V3.03H.437a.426.426 0 0 1-.314-.123A.426.426 0 0 1 0 2.594v-.438c0-.127.041-.232.123-.314a.426.426 0 0 1 .314-.123h5.688v-.656c0-.128.041-.233.123-.315a.426.426 0 0 1 .314-.123h.875c.128 0 .233.041.315.123a.426.426 0 0 1 .123.315v.656h5.687zm0 8.75c.128 0 .233.04.315.123a.426.426 0 0 1 .123.314v.438a.426.426 0 0 1-.123.314.426.426 0 0 1-.315.123H4.375v.656a.426.426 0 0 1-.123.315.426.426 0 0 1-.315.123h-.875a.426.426 0 0 1-.314-.123.426.426 0 0 1-.123-.315v-.656H.437a.426.426 0 0 1-.314-.123.426.426 0 0 1-.123-.314v-.438c0-.127.041-.232.123-.314a.426.426 0 0 1 .314-.123h2.188v-.656c0-.128.041-.233.123-.315a.426.426 0 0 1 .314-.123h.875c.128 0 .233.041.315.123a.426.426 0 0 1 .123.315v.656h9.187zm0-4.375c.128 0 .233.04.315.123A.426.426 0 0 1 14 6.53v.438a.426.426 0 0 1-.123.314.426.426 0 0 1-.315.123h-2.187v.657a.426.426 0 0 1-.123.314.426.426 0 0 1-.315.123h-.875a.426.426 0 0 1-.314-.123.426.426 0 0 1-.123-.314v-.657H.437a.426.426 0 0 1-.314-.123A.426.426 0 0 1 0 6.97V6.53c0-.127.041-.232.123-.314a.426.426 0 0 1 .314-.123h9.188v-.656c0-.128.041-.233.123-.315A.426.426 0 0 1 10.062 5h.875c.128 0 .233.041.315.123a.426.426 0 0 1 .123.315v.656h2.187z"/>
</svg>
