<svg xmlns="http://www.w3.org/2000/svg" width="5" height="5" viewBox="0 0 5 5">
    <path fill="#E35555" fill-rule="evenodd" d="M2.832 2.05l1.211 1.212c.039.052.059.11.059.175 0 .066-.02.118-.059.157l-.45.449a.211.211 0 0 1-.156.059.286.286 0 0 1-.175-.059L2.05 2.832.84 4.043a.286.286 0 0 1-.176.059.211.211 0 0 1-.156-.059l-.45-.45A.211.211 0 0 1 0 3.438c0-.065.02-.123.059-.175l1.21-1.211L.06.84A.286.286 0 0 1 0 .664C0 .6.02.547.059.508l.449-.45A.211.211 0 0 1 .664 0C.73 0 .788.02.84.059l1.21 1.21L3.263.06A.286.286 0 0 1 3.437 0c.066 0 .118.02.157.059l.449.449c.039.039.059.091.059.156s-.02.124-.059.176L2.832 2.05z"/>
</svg>
