<svg xmlns="http://www.w3.org/2000/svg" xmlns:xlink="http://www.w3.org/1999/xlink" width="233" height="215" viewBox="0 0 233 215">
    <defs>
        <path id="a" d="M0 214.2h230.984V.257H0z"/>
        <path id="c" d="M10.473 75.3c-24.423 24.453 3.502 92.66 20.112 111.303 43.67 49.018 108.386 23.992 140.053-7.715 31.667-31.708-4.198-62.197 0-93.263 4.59-33.961-45.521-85.35-85.239-85.35S34.895 50.845 10.473 75.3z"/>
    </defs>
    <g fill="none" fill-rule="evenodd">
        <path fill="#F7F8FA" d="M-443-257H997v1309H-443z"/>
        <rect width="619" height="459" x=".5" y=".5" fill="#FFF" stroke="#DFE0E6" rx="5" transform="translate(-193 -50)"/>
        <path fill="#313D56" d="M160.685 190.082h67.563V55.216h-67.563v134.866zm.225-.226h67.114V55.44H160.91v134.416z"/>
        <path fill="#FFF" d="M164.307 86.8h67.564V52.44h-67.564z"/>
        <g stroke="#313D56" stroke-width=".5">
            <path d="M164.308 86.8h67.563V52.44h-67.563zM1.112 172.23h154.564V73.066H1.112z"/>
        </g>
        <path stroke="#313D56" stroke-width=".5" d="M172.62 98.495h41.301M172.62 103.617h38.317M172.62 108.738h35.547M172.62 113.86h39.596M172.62 118.982h41.301M172.62 124.104h44.286M172.62 129.226h25.47"/>
        <path fill="#313D56" d="M194.762 187.488h30.242v-8.11h-30.242v8.11zm.225-.225h29.793v-7.66h-29.793v7.66z"/>
        <g transform="translate(1 .643)">
            <path stroke="#313D56" stroke-width=".5" d="M81.884 78.965c-8.842.125-18.489 5.693-22.267 15.24-1.483 3.742-3.67 7.215-6.715 9.846-2.765 2.39-4.593 6.213-4.671 10.212-.088 4.431-1.456 8.754-3.711 12.568-2.263 3.826-3.49 8.997-2.349 13.97 1.026 4.471.96 9.089-.276 13.505-1.993 7.12 1.384 14.863 7.513 15.901 8.138 1.38 59.265 1.355 67.36-4.996 4.914-3.854 5.362-8.95 4.046-13.5-1.322-4.559-1.679-9.38-.487-13.974.84-3.239.7-7.17-1.434-11.203-2.403-4.539-3.573-9.692-3.018-14.799.44-4.042-.807-8.439-6.026-12.582-2.401-1.906-4.455-4.212-5.953-6.888-3.846-6.868-9.05-12.918-22.012-13.3z"/>
            <mask id="b" fill="#fff">
                <use xlink:href="#a"/>
            </mask>
            <path stroke="#313D56" stroke-width=".5" d="M76.79 153.155h14.79v-18.2H76.79zM63.218 121.37c0-2.72 1.922-4.925 4.293-4.925 2.371 0 4.293 2.205 4.293 4.924 0 2.719-1.922 4.924-4.293 4.924-2.37 0-4.293-2.205-4.293-4.924z" mask="url(#b)"/>
            <path stroke="#313D56" stroke-width=".5" d="M104.518 120.764c0-11.414-8.138-20.668-18.177-20.668-10.038 0-18.176 9.254-18.176 20.668 0 11.416 8.138 20.669 18.176 20.669 10.04 0 18.177-9.253 18.177-20.669z" mask="url(#b)"/>
            <path fill="#FFF" d="M49.198 171.587h70.705s-5.777-19.666-22.182-22.21c-6.112-.949-8.037 1.802-11.38 2.082-5.626.47-10.76-.813-13.805-.232-4.853.926-14.557.926-23.338 20.36" mask="url(#b)"/>
            <path stroke="#313D56" stroke-width=".5" d="M49.198 171.587h70.705s-5.777-19.666-22.182-22.21c-6.112-.949-8.037 1.802-11.38 2.082-5.626.47-10.76-.813-13.805-.232-4.853.926-14.557.926-23.338 20.36z" mask="url(#b)"/>
            <path stroke="#313D56" stroke-width=".5" d="M86.342 151.458c7.769-4.395 15.539-.958 15.539-.958s-3.87 12.15-15.655 12.671c-11.4.503-18.68-10.965-18.68-10.965s11.142-2.8 18.796-.748zM85.417 100.096c0 5.476 19.101 17.43 19.101 17.43l7.471-8.021-24.415-12.648-2.157 3.239z" mask="url(#b)"/>
            <path stroke="#313D56" stroke-width=".5" d="M86.342 100.096c-3.466 6.4-11.014 20.051-19.718 16.196-8.703-3.856 3.698-18.664 3.698-18.664l14.172-3.239 1.848 5.707zM83.792 155.337l-10.273-4.58 3.272-4.736 9.55 5.437zM86.342 151.458l5.237-6.073 2.908 3.992-5.757 5.475zM86.342 151.458s-.375 7.686.544 11.67M193.893 79.455h5.393v-6.639h-5.393z" mask="url(#b)"/>
            <path stroke="#313D56" stroke-width=".5" d="M199.383 75.125s3.87-.156 3.988-3.543c.116-3.385 2.292-15.293-7.89-15.176" mask="url(#b)"/>
            <path stroke="#313D56" stroke-width=".5" d="M204.236 67.862c0-.992-.701-1.795-1.566-1.795-.864 0-1.565.803-1.565 1.795 0 .992.7 1.796 1.565 1.796s1.566-.804 1.566-1.796z" mask="url(#b)"/>
            <path stroke="#313D56" stroke-width=".5" d="M189.174 67.642c-.95-4.053 2.968-7.538 6.629-7.538 3.662 0 6.629 3.375 6.629 7.538s-1.952 5.692-6.63 7.537c-3.405 1.345-5.276-1.768-6.628-7.537zM209.35 86.177h-25.786s.137-1.458.705-3.141a6.653 6.653 0 0 1 5.045-4.4c1.857-.358 3.892-.618 4.449-.654.825-.055 1.233 1.025 2.04 1.961 3.483-1.982 3.483-1.982 7.414-1.191 1.766.355 2.93.337 6.132 7.425z" mask="url(#b)"/>
            <path stroke="#313D56" stroke-width=".5" d="M196.733 81.358l3.488-3.094-.935-.825-3.482 2.505zM195.803 79.476l-1.91-2.215-1.06.82 2.1 2.633zM195.803 79.944c-.322 3.216-.09 5.762-.198 6.233M195.07 56.076l-.453-.083a1.408 1.408 0 0 0-1.247.386 1.415 1.415 0 0 1-1.278.38l-.898-.186a1.41 1.41 0 0 0-1.435.565l-1.283 1.805a1.41 1.41 0 0 0-.261.833c.009 1.244.409 4.344 4.292 3.245 4.82-1.361 7.471.818 7.973 2.374.5 1.557.047 3.6.889 3.892.726.251.89-2.284.921-2.989a1.381 1.381 0 0 0-.027-.344l-1.048-5.154a1.413 1.413 0 0 0-.558-.865l-5.014-3.615a1.423 1.423 0 0 0-.572-.244zM33.695 61.448h20.007V41.416H33.695z" mask="url(#b)"/>
            <path fill="#313D56" d="M43.9 49.382c.638 0 1.189.23 1.65.693.46.461.69 1.013.69 1.652s-.23 1.19-.69 1.651a2.248 2.248 0 0 1-1.65.693c-.639 0-1.189-.23-1.65-.693a2.252 2.252 0 0 1-.692-1.651c0-.64.23-1.19.692-1.652a2.248 2.248 0 0 1 1.65-.693zm0 5.542a3.16 3.16 0 0 0 2.768-1.586 3.146 3.146 0 0 0 .425-1.611c0-.586-.142-1.124-.426-1.613a3.155 3.155 0 0 0-1.157-1.158 3.143 3.143 0 0 0-1.61-.427c-.586 0-1.123.142-1.61.427-.489.284-.874.67-1.158 1.158a3.154 3.154 0 0 0-.426 1.613c0 .587.142 1.124.426 1.612a3.162 3.162 0 0 0 2.767 1.585zm1.809-9.166h-3.486a.387.387 0 0 0-.24.08.517.517 0 0 0-.16.187l-.531 1.438h-2.928a.415.415 0 0 0-.306.12.418.418 0 0 0-.12.307v7.673c0 .126.04.227.12.307.08.08.182.12.306.12h11.07c.124 0 .227-.04.307-.12.08-.08.12-.181.12-.307V47.89a.415.415 0 0 0-.12-.307.415.415 0 0 0-.307-.12h-2.926l-.586-1.572c-.035-.089-.106-.133-.213-.133zm0-.853c.23 0 .435.063.612.186.178.125.31.294.4.508l.372 1.012h2.341c.355 0 .657.124.905.373.249.248.373.55.373.906v7.673c0 .357-.124.658-.373.907-.248.248-.55.373-.905.373h-11.07c-.355 0-.657-.125-.905-.373a1.233 1.233 0 0 1-.372-.907V47.89c0-.355.124-.658.372-.906.248-.249.55-.373.905-.373h2.342l.32-.88c.106-.248.266-.448.478-.6.213-.15.453-.226.719-.226h3.486z" mask="url(#b)"/>
            <path stroke="#FFF" stroke-width=".5" d="M43.9 49.382c.638 0 1.189.23 1.65.693.46.461.69 1.013.69 1.652s-.23 1.19-.69 1.651a2.248 2.248 0 0 1-1.65.693c-.639 0-1.189-.23-1.65-.693a2.252 2.252 0 0 1-.692-1.651c0-.64.23-1.19.692-1.652a2.248 2.248 0 0 1 1.65-.693zm0 5.542a3.16 3.16 0 0 0 2.768-1.586 3.146 3.146 0 0 0 .425-1.611c0-.586-.142-1.124-.426-1.613a3.155 3.155 0 0 0-1.157-1.158 3.143 3.143 0 0 0-1.61-.427c-.586 0-1.123.142-1.61.427-.489.284-.874.67-1.158 1.158a3.154 3.154 0 0 0-.426 1.613c0 .587.142 1.124.426 1.612a3.162 3.162 0 0 0 2.767 1.585zm1.809-9.166h-3.486a.387.387 0 0 0-.24.08.517.517 0 0 0-.16.187l-.531 1.438h-2.928a.415.415 0 0 0-.306.12.418.418 0 0 0-.12.307v7.673c0 .126.04.227.12.307.08.08.182.12.306.12h11.07c.124 0 .227-.04.307-.12.08-.08.12-.181.12-.307V47.89a.415.415 0 0 0-.12-.307.415.415 0 0 0-.307-.12h-2.926l-.586-1.572c-.035-.089-.106-.133-.213-.133zm0-.853c.23 0 .435.063.612.186.178.125.31.294.4.508l.372 1.012h2.341c.355 0 .657.124.905.373.249.248.373.55.373.906v7.673c0 .357-.124.658-.373.907-.248.248-.55.373-.905.373h-11.07c-.355 0-.657-.125-.905-.373a1.233 1.233 0 0 1-.372-.907V47.89c0-.355.124-.658.372-.906.248-.249.55-.373.905-.373h2.342l.32-.88c.106-.248.266-.448.478-.6.213-.15.453-.226.719-.226h3.486z" mask="url(#b)"/>
            <path stroke="#313D56" stroke-width=".5" d="M63.747 61.448h20.005V41.416H63.747z" mask="url(#b)"/>
            <path fill="#313D56" d="M73.205 56.153h1.629l-.334-1.338h-.96l-.335 1.338zm6.16-3.011v-6.023a.325.325 0 0 0-.093-.24.324.324 0 0 0-.24-.094H69.008a.321.321 0 0 0-.335.334v6.023a.323.323 0 0 0 .335.335h10.024a.322.322 0 0 0 .333-.335zm-.333-7.026c.278 0 .516.097.71.293a.964.964 0 0 1 .293.71v6.023a.966.966 0 0 1-.292.711.968.968 0 0 1-.71.293h-4.011l.501 2.007h1.504c.097 0 .178.032.24.094a.328.328 0 0 1 .095.241.323.323 0 0 1-.334.335h-6.016a.325.325 0 0 1-.334-.335c0-.097.031-.178.094-.241a.328.328 0 0 1 .24-.094h1.504l.501-2.007h-4.01a.965.965 0 0 1-.71-.293.964.964 0 0 1-.292-.711v-6.023c0-.279.097-.515.293-.71a.961.961 0 0 1 .71-.293h10.024z" mask="url(#b)"/>
            <path stroke="#FFF" stroke-width=".5" d="M73.205 56.153h1.629l-.334-1.338h-.96l-.335 1.338zm6.16-3.011v-6.023a.325.325 0 0 0-.093-.24.324.324 0 0 0-.24-.094H69.008a.321.321 0 0 0-.335.334v6.023a.323.323 0 0 0 .335.335h10.024a.322.322 0 0 0 .333-.335zm-.333-7.026c.278 0 .516.097.71.293a.964.964 0 0 1 .293.71v6.023a.966.966 0 0 1-.292.711.968.968 0 0 1-.71.293h-4.011l.501 2.007h1.504c.097 0 .178.032.24.094a.328.328 0 0 1 .095.241.323.323 0 0 1-.334.335h-6.016a.325.325 0 0 1-.334-.335c0-.097.031-.178.094-.241a.328.328 0 0 1 .24-.094h1.504l.501-2.007h-4.01a.965.965 0 0 1-.71-.293.964.964 0 0 1-.292-.711v-6.023c0-.279.097-.515.293-.71a.961.961 0 0 1 .71-.293h10.024z" mask="url(#b)"/>
            <path stroke="#313D56" stroke-width=".5" d="M93.797 61.448h20.006V41.416H93.797z" mask="url(#b)"/>
            <path stroke="#313D56" stroke-width=".5" d="M107.692 48.626l-1.931-1.933a.577.577 0 0 0-.161-.115v2.21h2.206a.6.6 0 0 0-.114-.162zm-1.356 5.594a.264.264 0 0 0-.08-.195.262.262 0 0 0-.196-.081h-3.862a.262.262 0 0 0-.196.08.264.264 0 0 0-.08.196v.184c0 .077.026.142.08.196a.27.27 0 0 0 .196.08h3.862a.269.269 0 0 0 .195-.08.266.266 0 0 0 .081-.196v-.184zm0-1.473a.268.268 0 0 0-.08-.197.268.268 0 0 0-.196-.08h-3.862a.268.268 0 0 0-.196.08.267.267 0 0 0-.08.197v.183c0 .077.026.142.08.196a.266.266 0 0 0 .196.081h3.862a.265.265 0 0 0 .195-.08.268.268 0 0 0 .081-.197v-.183zm0-1.475a.262.262 0 0 0-.08-.194.265.265 0 0 0-.196-.08h-3.862a.266.266 0 0 0-.196.08.262.262 0 0 0-.08.194v.186c0 .075.026.141.08.195.054.054.118.08.196.08h3.862a.264.264 0 0 0 .195-.08.267.267 0 0 0 .081-.195v-.186zm1.103 5.618a.356.356 0 0 0 .264-.103.359.359 0 0 0 .103-.266v-6.997h-2.39a.532.532 0 0 1-.39-.161.531.531 0 0 1-.161-.392v-2.393h-4.047a.36.36 0 0 0-.264.103.359.359 0 0 0-.104.265v9.575c0 .108.035.196.104.266.069.07.157.103.264.103h6.62zm.782-8.794c.215.215.322.476.322.783v7.642c0 .308-.107.568-.322.784a1.065 1.065 0 0 1-.782.321h-6.621c-.306 0-.567-.107-.782-.32a1.072 1.072 0 0 1-.322-.785v-9.575c0-.308.108-.568.322-.783.215-.215.476-.323.782-.323h4.69c.307 0 .567.108.781.323l1.932 1.933zM123.847 61.448h20.007V41.416h-20.007z" mask="url(#b)"/>
            <path stroke="#313D56" stroke-width=".5" d="M137.923 56.215a.357.357 0 0 0 .263-.103.356.356 0 0 0 .102-.263v-6.207h-8.752v6.207c0 .108.035.195.103.263a.356.356 0 0 0 .262.103h8.022zm-8.022-8.763a.356.356 0 0 0-.262.102.356.356 0 0 0-.103.263v1.095h8.752v-1.095a.356.356 0 0 0-.102-.263.357.357 0 0 0-.263-.102h-8.022zm8.022-.731c.304 0 .562.107.775.32.213.213.32.472.32.776v8.032c0 .305-.107.564-.32.776-.213.213-.47.32-.775.32h-8.022c-.304 0-.562-.107-.775-.32a1.058 1.058 0 0 1-.32-.776v-8.032c0-.304.108-.563.32-.776.213-.213.47-.32.775-.32h1.094v-1.185c0-.077.026-.142.08-.195a.264.264 0 0 1 .193-.08h.183a.26.26 0 0 1 .193.08c.054.053.08.118.08.194v1.186h4.376v-1.185c0-.077.027-.142.08-.195a.262.262 0 0 1 .193-.08h.183a.26.26 0 0 1 .194.08c.053.053.08.118.08.194v1.186h1.093z" mask="url(#b)"/>
            <path fill="#FFF1F4" d="M72.774 186.585C56.164 167.94 28.24 99.735 52.663 75.28 77.085 50.826 87.87.258 127.589.258c39.717 0 89.827 51.386 85.239 85.35-4.199 31.065 31.667 61.552 0 93.261-31.668 31.708-96.382 56.733-140.054 7.716" mask="url(#b)"/>
        </g>
        <g transform="translate(43.245 .643)">
            <mask id="d" fill="#fff">
                <use xlink:href="#c"/>
            </mask>
            <path fill="#F7F8FA" d="M117.44 189.438h67.563V54.572H117.44z" mask="url(#d)"/>
            <path fill="#FFF" d="M121.063 86.157h67.563V51.799h-67.563z" mask="url(#d)"/>
            <path fill="#F7F8FA" d="M-42.133 171.587H112.43V72.424H-42.133z" mask="url(#d)"/>
            <path stroke="#DADFE5" stroke-linecap="round" stroke-width=".9" d="M129.375 97.852h41.301M129.375 102.974h38.317M129.375 108.096h35.547M129.375 113.218h39.596M129.375 118.34h41.301M129.375 123.462h44.285M129.375 128.583h25.47" mask="url(#d)"/>
            <path fill="#56E0C4" d="M151.517 186.845h30.242v-8.11h-30.242z" mask="url(#d)"/>
            <path fill="#BA8AE1" d="M39.64 78.965c-8.843.125-18.49 5.693-22.269 15.24-1.482 3.742-3.669 7.215-6.714 9.846-2.766 2.39-4.593 6.213-4.671 10.212-.088 4.431-1.456 8.754-3.711 12.568-2.263 3.826-3.49 8.997-2.35 13.97 1.027 4.471.96 9.089-.275 13.505-1.993 7.12 1.384 14.863 7.512 15.901 8.138 1.38 59.266 1.355 67.36-4.996 4.915-3.854 5.363-8.95 4.046-13.5-1.32-4.559-1.678-9.38-.486-13.974.84-3.239.7-7.17-1.434-11.203-2.403-4.539-3.573-9.692-3.018-14.799.44-4.042-.807-8.439-6.026-12.582-2.401-1.906-4.455-4.212-5.953-6.888-3.847-6.868-9.05-12.918-22.012-13.3" mask="url(#d)"/>
            <path fill="#FFC0A4" d="M34.546 153.155h14.788v-18.2H34.546zM20.973 121.37c0-2.72 1.922-4.925 4.293-4.925 2.371 0 4.293 2.205 4.293 4.924 0 2.719-1.922 4.924-4.293 4.924-2.37 0-4.293-2.205-4.293-4.924" mask="url(#d)"/>
            <path fill="#FFD2C0" d="M62.273 120.764c0-11.414-8.138-20.668-18.177-20.668-10.038 0-18.176 9.254-18.176 20.668 0 11.416 8.138 20.669 18.176 20.669 10.04 0 18.177-9.253 18.177-20.669" mask="url(#d)"/>
            <path fill="#313D56" d="M6.953 171.587h70.705s-5.777-19.666-22.182-22.21c-6.112-.949-8.037 1.802-11.38 2.082-5.626.47-10.761-.813-13.805-.232-4.853.926-14.557.926-23.338 20.36" mask="url(#d)"/>
            <path fill="#D3D8E5" d="M44.096 151.458c7.77-4.395 15.54-.958 15.54-.958s-3.871 12.15-15.655 12.671c-11.4.503-18.68-10.965-18.68-10.965s11.142-2.8 18.795-.748" mask="url(#d)"/>
            <path fill="#BA8AE1" d="M43.172 100.096c0 5.476 19.101 17.43 19.101 17.43l7.471-8.021-24.416-12.648-2.156 3.239z" mask="url(#d)"/>
            <path fill="#BA8AE1" d="M44.096 100.096c-3.466 6.4-11.013 20.051-19.717 16.196-8.703-3.856 3.697-18.664 3.697-18.664l14.172-3.239 1.848 5.707z" mask="url(#d)"/>
            <path fill="#FFF" d="M41.547 155.337l-10.273-4.58 3.272-4.736 9.55 5.437z" mask="url(#d)"/>
            <path fill="#FFF" d="M44.096 151.458l5.238-6.073 2.908 3.992-5.757 5.475z" mask="url(#d)"/>
            <path stroke="#FFF" stroke-width=".5" d="M44.096 151.458s-.374 7.686.545 11.67" mask="url(#d)"/>
            <path fill="#FFC0A4" d="M151.648 79.455h5.393v-6.639h-5.393z" mask="url(#d)"/>
            <path fill="#313D56" d="M157.138 75.125s3.87-.156 3.987-3.543c.117-3.385 2.293-15.293-7.89-15.176" mask="url(#d)"/>
            <path fill="#FFC0A4" d="M161.991 67.862c0-.992-.701-1.795-1.566-1.795-.864 0-1.565.803-1.565 1.795 0 .992.7 1.796 1.565 1.796s1.566-.804 1.566-1.796" mask="url(#d)"/>
            <path fill="#FFD2C0" d="M146.929 67.642c-.95-4.053 2.968-7.538 6.629-7.538 3.662 0 6.629 3.375 6.629 7.538s-1.953 5.692-6.63 7.537c-3.405 1.345-5.276-1.768-6.628-7.537" mask="url(#d)"/>
            <path fill="#56E0C4" d="M167.104 86.177H141.32s.137-1.458.705-3.141a6.653 6.653 0 0 1 5.045-4.4c1.856-.358 3.891-.618 4.449-.654.825-.055 1.233 1.025 2.04 1.961 3.483-1.982 3.483-1.982 7.414-1.191 1.766.355 2.93.337 6.132 7.425" mask="url(#d)"/>
            <path fill="#FFF" d="M154.488 81.358l3.488-3.094-.935-.825-3.483 2.505zM153.558 79.476l-1.91-2.215-1.06.82 2.1 2.633z" mask="url(#d)"/>
            <path stroke="#FFF" stroke-width=".5" d="M153.558 79.944c-.322 3.216-.09 5.762-.198 6.233" mask="url(#d)"/>
            <path fill="#313D56" d="M152.826 56.076l-.454-.083a1.408 1.408 0 0 0-1.247.386 1.415 1.415 0 0 1-1.278.38l-.898-.186a1.41 1.41 0 0 0-1.435.565l-1.283 1.805a1.41 1.41 0 0 0-.262.833c.01 1.244.41 4.344 4.293 3.245 4.82-1.361 7.471.818 7.973 2.374.5 1.557.047 3.6.889 3.892.726.251.89-2.284.921-2.989a1.381 1.381 0 0 0-.027-.344L158.97 60.8a1.413 1.413 0 0 0-.558-.865l-5.015-3.615a1.423 1.423 0 0 0-.571-.244" mask="url(#d)"/>
            <path fill="#BA8AE1" d="M-8.55 61.448h20.007V41.416H-8.55z" mask="url(#d)"/>
            <path fill="#FFF" d="M1.654 49.382c.64 0 1.19.23 1.65.693.462.461.692 1.013.692 1.652s-.23 1.19-.692 1.651a2.248 2.248 0 0 1-1.65.693c-.638 0-1.188-.23-1.65-.693a2.252 2.252 0 0 1-.691-1.651c0-.64.23-1.19.692-1.652a2.248 2.248 0 0 1 1.65-.693zm0 5.542a3.16 3.16 0 0 0 2.768-1.586 3.146 3.146 0 0 0 .426-1.611c0-.586-.142-1.124-.426-1.613a3.155 3.155 0 0 0-1.157-1.158 3.143 3.143 0 0 0-1.61-.427c-.586 0-1.123.142-1.61.427-.489.284-.874.67-1.158 1.158a3.154 3.154 0 0 0-.426 1.613c0 .587.142 1.124.426 1.612a3.162 3.162 0 0 0 2.767 1.585zm1.81-9.166H-.022a.387.387 0 0 0-.24.08.517.517 0 0 0-.16.187l-.531 1.438h-2.928a.415.415 0 0 0-.306.12.418.418 0 0 0-.12.307v7.673c0 .126.04.227.12.307.08.08.182.12.306.12H7.19c.124 0 .227-.04.307-.12.08-.08.12-.181.12-.307V47.89a.415.415 0 0 0-.12-.307.415.415 0 0 0-.307-.12H4.263l-.586-1.572c-.035-.089-.106-.133-.213-.133zm0-.853c.23 0 .435.063.612.186.178.125.31.294.4.508l.372 1.012h2.341c.355 0 .657.124.905.373.248.248.373.55.373.906v7.673c0 .357-.125.658-.373.907-.248.248-.55.373-.905.373H-3.88c-.355 0-.657-.125-.905-.373a1.233 1.233 0 0 1-.372-.907V47.89c0-.355.124-.658.372-.906.248-.249.55-.373.905-.373h2.342l.32-.88c.106-.248.266-.448.478-.6.213-.15.453-.226.719-.226h3.486z" mask="url(#d)"/>
            <path stroke="#BA8AE1" stroke-width=".63" d="M1.654 49.382c.64 0 1.19.23 1.65.693.462.461.692 1.013.692 1.652s-.23 1.19-.692 1.651a2.248 2.248 0 0 1-1.65.693c-.638 0-1.188-.23-1.65-.693a2.252 2.252 0 0 1-.691-1.651c0-.64.23-1.19.692-1.652a2.248 2.248 0 0 1 1.65-.693zm0 5.542a3.16 3.16 0 0 0 2.768-1.586 3.146 3.146 0 0 0 .426-1.611c0-.586-.142-1.124-.426-1.613a3.155 3.155 0 0 0-1.157-1.158 3.143 3.143 0 0 0-1.61-.427c-.586 0-1.123.142-1.61.427-.489.284-.874.67-1.158 1.158a3.154 3.154 0 0 0-.426 1.613c0 .587.142 1.124.426 1.612a3.162 3.162 0 0 0 2.767 1.585zm1.81-9.166H-.022a.387.387 0 0 0-.24.08.517.517 0 0 0-.16.187l-.531 1.438h-2.928a.415.415 0 0 0-.306.12.418.418 0 0 0-.12.307v7.673c0 .126.04.227.12.307.08.08.182.12.306.12H7.19c.124 0 .227-.04.307-.12.08-.08.12-.181.12-.307V47.89a.415.415 0 0 0-.12-.307.415.415 0 0 0-.307-.12H4.263l-.586-1.572c-.035-.089-.106-.133-.213-.133zm0-.853c.23 0 .435.063.612.186.178.125.31.294.4.508l.372 1.012h2.341c.355 0 .657.124.905.373.248.248.373.55.373.906v7.673c0 .357-.125.658-.373.907-.248.248-.55.373-.905.373H-3.88c-.355 0-.657-.125-.905-.373a1.233 1.233 0 0 1-.372-.907V47.89c0-.355.124-.658.372-.906.248-.249.55-.373.905-.373h2.342l.32-.88c.106-.248.266-.448.478-.6.213-.15.453-.226.719-.226h3.486z" mask="url(#d)"/>
            <path fill="#BA8AE1" d="M21.502 61.448h20.005V41.416H21.502z" mask="url(#d)"/>
            <path fill="#FFF" d="M26.8 53.153h9.438v-6.075H26.8v6.075zm9.775-7.425c.282 0 .52.098.717.295a.976.976 0 0 1 .294.718v6.75c0 .28-.097.52-.294.717a.975.975 0 0 1-.717.295h-4.044l.337 1.013h1.517c.14 0 .26.048.358.147a.485.485 0 0 1 .147.358c0 .14-.049.26-.147.36a.487.487 0 0 1-.358.147h-5.73a.49.49 0 0 1-.359-.148.492.492 0 0 1-.147-.359c0-.14.05-.26.147-.358a.487.487 0 0 1 .359-.147h1.516l.337-1.013h-4.045a.975.975 0 0 1-.715-.295.978.978 0 0 1-.296-.717v-6.75c0-.282.1-.52.296-.718a.971.971 0 0 1 .715-.295h10.112z" mask="url(#d)"/>
            <path fill="#BA8AE1" d="M51.552 61.448h20.006V41.416H51.552z" mask="url(#d)"/>
            <path fill="#FFF" d="M65.395 48.947c0-.14-.05-.26-.147-.358l-2.065-2.067a.484.484 0 0 0-.357-.148h-.127v2.7h2.696v-.127zm-3.37.295c0 .14.05.26.147.36a.487.487 0 0 0 .358.147h2.865v6.918c0 .14-.05.26-.147.36a.487.487 0 0 1-.358.147h-7.079c-.14 0-.26-.05-.358-.147a.492.492 0 0 1-.147-.36V46.88c0-.14.05-.26.147-.358a.484.484 0 0 1 .358-.148h4.214v2.868z" mask="url(#d)"/>
            <path fill="#BA8AE1" d="M81.602 61.448h20.007V41.416H81.602z" mask="url(#d)"/>
        </g>
        <path fill="#FFF" d="M130.79 50.48c-.07 0-.131.024-.18.073a.243.243 0 0 0-.073.18v5.484c0 .28.098.52.294.717a.973.973 0 0 0 .717.295h7.415c.28 0 .52-.098.717-.295a.98.98 0 0 0 .294-.717v-5.485c0-.07-.025-.13-.073-.179a.243.243 0 0 0-.18-.074h-8.932zm9.184-.929c0 .07-.025.13-.073.18a.243.243 0 0 1-.18.073h-8.932a.241.241 0 0 1-.179-.074.243.243 0 0 1-.073-.179v-.76c0-.28.098-.52.294-.717a.973.973 0 0 1 .717-.295h1.011v-1.097c0-.07.024-.13.074-.179a.241.241 0 0 1 .179-.074h.843c.07 0 .13.025.179.074.048.05.073.109.073.18v1.096h2.697v-1.097c0-.07.024-.13.073-.179a.241.241 0 0 1 .18-.074h.842c.07 0 .13.025.18.074.048.05.073.109.073.18v1.096h1.011c.28 0 .52.098.717.295a.98.98 0 0 1 .294.718v.76z"/>
    </g>
</svg>
