<svg xmlns="http://www.w3.org/2000/svg" width="18" height="13" viewBox="0 0 18 13">
    <path fill="#353B50" fill-rule="evenodd" d="M14.875 5.875a2.106 2.106 0 0 1-1.545-.643 2.106 2.106 0 0 1-.643-1.544c0-.602.215-1.117.643-1.545a2.106 2.106 0 0 1 1.545-.643c.602 0 1.116.214 1.545.643.428.428.642.943.642 1.545 0 .601-.214 1.116-.642 1.544a2.106 2.106 0 0 1-1.545.643zm0-3.062a.84.84 0 0 0-.615.26.84.84 0 0 0-.26.615.84.84 0 0 0 .26.615.84.84 0 0 0 .615.26.84.84 0 0 0 .615-.26.84.84 0 0 0 .26-.615.84.84 0 0 0-.26-.616.84.84 0 0 0-.615-.26zM2.625 5.875a2.106 2.106 0 0 1-1.545-.643 2.106 2.106 0 0 1-.643-1.544c0-.602.215-1.117.643-1.545A2.106 2.106 0 0 1 2.625 1.5c.602 0 1.117.214 1.545.643.428.428.642.943.642 1.545 0 .601-.214 1.116-.642 1.544a2.106 2.106 0 0 1-1.545.643zm0-3.062a.84.84 0 0 0-.615.26.84.84 0 0 0-.26.615.84.84 0 0 0 .26.615.84.84 0 0 0 .615.26.84.84 0 0 0 .615-.26.84.84 0 0 0 .26-.615.84.84 0 0 0-.26-.616.84.84 0 0 0-.615-.26zm10.828 5.769c.365.529.547 1.112.547 1.75v1.23c0 .365-.128.675-.383.93a1.266 1.266 0 0 1-.93.383H4.812c-.364 0-.674-.128-.93-.383a1.266 1.266 0 0 1-.382-.93v-1.23c0-.638.182-1.226.547-1.764.364-.537.87-.911 1.517-1.12a3.183 3.183 0 0 1 1.956-.014c.4.127.806.191 1.216.191.41 0 .825-.064 1.244-.191a3.183 3.183 0 0 1 1.956.013c.647.21 1.153.588 1.517 1.135zm-.766 2.98v-1.23c0-.492-.173-.916-.52-1.271A1.79 1.79 0 0 0 10.91 8.5a5.647 5.647 0 0 1-2.16.438c-.73 0-1.45-.146-2.16-.438a1.79 1.79 0 0 0-1.258.56c-.346.356-.52.78-.52 1.272v1.23h7.875zm2.516-4.812c.638 0 1.18.223 1.627.67.447.447.67.989.67 1.627a.633.633 0 0 1-.191.465.633.633 0 0 1-.465.191.633.633 0 0 1-.465-.191.633.633 0 0 1-.192-.465.95.95 0 0 0-.287-.697.95.95 0 0 0-.697-.287h-.656c-.091 0-.2.018-.328.054a4.44 4.44 0 0 0-.957-.984 2.266 2.266 0 0 1 1.285-.383h.656zm-6.453 0a3.013 3.013 0 0 1-1.531-.41 3.008 3.008 0 0 1-1.121-1.121 3.013 3.013 0 0 1-.41-1.531c0-.547.136-1.058.41-1.532a3.008 3.008 0 0 1 1.12-1.12C7.694.761 8.204.624 8.75.624s1.057.137 1.531.41c.474.274.848.647 1.121 1.121.274.474.41.985.41 1.532 0 .546-.136 1.057-.41 1.53a3.008 3.008 0 0 1-1.12 1.122c-.475.273-.985.41-1.532.41zm0-4.812c-.474 0-.884.173-1.23.52-.347.345-.52.756-.52 1.23 0 .473.173.884.52 1.23.346.346.756.52 1.23.52s.884-.174 1.23-.52c.347-.346.52-.757.52-1.23 0-.474-.173-.885-.52-1.23a1.682 1.682 0 0 0-1.23-.52zM4.238 7.133a4.19 4.19 0 0 0-.957 1.012.728.728 0 0 0-.328-.082h-.656a.95.95 0 0 0-.697.287.95.95 0 0 0-.288.697.633.633 0 0 1-.19.465.633.633 0 0 1-.466.191.633.633 0 0 1-.465-.191A.633.633 0 0 1 0 9.047c0-.638.223-1.18.67-1.627.447-.447.989-.67 1.627-.67h.656c.474 0 .902.128 1.285.383z"/>
</svg>
