<?xml version="1.0" encoding="UTF-8"?>
<svg width="16px" height="11px" viewBox="0 0 16 11" version="1.1" xmlns="http://www.w3.org/2000/svg" xmlns:xlink="http://www.w3.org/1999/xlink">
    <!-- Generator: sketchtool 52.3 (67297) - http://www.bohemiancoding.com/sketch -->
    <title>D4446772-8231-441A-8493-C40337E29380</title>
    <desc>Created with sketchtool.</desc>
    <g id="UIKIT" stroke="none" stroke-width="1" fill="none" fill-rule="evenodd">
        <g id="UI_KIT_Base" transform="translate(-727.000000, -1997.000000)" fill="#21A68B">
            <g id="Group-11" transform="translate(631.000000, 1915.000000)">
                <path d="M105.187478,82 C105.55206,82 105.861956,82.127604 106.117163,82.3828116 C106.372371,82.6380192 106.499975,82.9479145 106.499975,83.3124969 L106.499975,91.1874781 C106.499975,91.5520604 106.372371,91.8619558 106.117163,92.1171634 C105.861956,92.372371 105.55206,92.499975 105.187478,92.499975 L97.3124969,92.499975 C96.9479145,92.499975 96.6380192,92.372371 96.3828116,92.1171634 C96.127604,91.8619558 96,91.5520604 96,91.1874781 L96,83.3124969 C96,82.9479145 96.127604,82.6380192 96.3828116,82.3828116 C96.6380192,82.127604 96.9479145,82 97.3124969,82 L105.187478,82 Z M110.382778,83.03906 C110.56507,82.911456 110.76559,82.8613261 110.984339,82.8886698 C111.203089,82.9160134 111.38538,83.0071589 111.531213,83.1621066 C111.677046,83.3170543 111.749962,83.5039027 111.749962,83.7226521 L111.749962,90.7499791 C111.749962,90.9869579 111.677046,91.1829207 111.531213,91.3378684 C111.38538,91.492816 111.203089,91.5839615 110.984339,91.6113052 C110.76559,91.6386489 110.56507,91.5885189 110.382778,91.4609149 L107.374973,89.4101386 L107.374973,85.0898364 L110.382778,83.03906 Z" id="video"></path>
            </g>
        </g>
    </g>
</svg>