<svg xmlns="http://www.w3.org/2000/svg" width="18" height="13" viewBox="0 0 18 13">
    <path fill="#353B50" fill-rule="evenodd" d="M10.5 11.125c0 .492-.169.907-.506 1.244a1.691 1.691 0 0 1-1.244.506c-.492 0-.907-.169-1.244-.506A1.691 1.691 0 0 1 7 11.125c0-.492.169-.907.506-1.244a1.691 1.691 0 0 1 1.244-.506c.492 0 .907.169 1.244.506.337.337.506.752.506 1.244zm3.746-3.39l-.93.93a.47.47 0 0 1-.601 0 6.04 6.04 0 0 0-2.543-1.3 6 6 0 0 0-2.844 0 6.04 6.04 0 0 0-2.543 1.3.47.47 0 0 1-.601 0l-.93-.93a.404.404 0 0 1-.123-.329.5.5 0 0 1 .15-.328 8.03 8.03 0 0 1 3.5-1.846 8.22 8.22 0 0 1 3.938 0 8.03 8.03 0 0 1 3.5 1.846.5.5 0 0 1 .15.328.404.404 0 0 1-.123.328zm3.063-3.118l-.93.93a.56.56 0 0 1-.315.123.316.316 0 0 1-.287-.123 10.209 10.209 0 0 0-4.539-2.434 10.002 10.002 0 0 0-4.976 0 10.209 10.209 0 0 0-4.54 2.434.316.316 0 0 1-.286.123.56.56 0 0 1-.315-.123l-.93-.93a.404.404 0 0 1-.123-.328.403.403 0 0 1 .15-.3 12.038 12.038 0 0 1 5.497-2.981c2.023-.51 4.047-.51 6.07 0a12.038 12.038 0 0 1 5.496 2.98.403.403 0 0 1 .15.301.404.404 0 0 1-.122.328z"/>
</svg>
